<svg width="49" height="49" viewBox="0 0 49 49" fill="none" xmlns="http://www.w3.org/2000/svg">
<path d="M24.5 48.1C37.7548 48.1 48.5 37.3548 48.5 24.1C48.5 10.8451 37.7548 0.0999756 24.5 0.0999756C11.2452 0.0999756 0.5 10.8451 0.5 24.1C0.5 37.3548 11.2452 48.1 24.5 48.1Z" fill="#DDCACA"/>
<path d="M8.99999 20.2C9.09999 19.8 9.29999 19.5 9.59999 19.2C9.89999 18.9 10.2 18.6 10.6 18.5C10.7 18.5 10.8 18.4 10.9 18.4C11.4 18.1 11.9 17.9 12.4 17.6C13 17.3 13.5 17 14 16.7C14.2 16.6 14.4 16.5 14.6 16.4C14.7 16.4 14.7 16.3 14.8 16.3C15 16.2 15.3 16 15.5 15.9C15.7 15.8 15.8 15.7 16 15.6C16.1 15.6 16.2 15.5 16.3 15.5C16.8 15.2 17.4 14.9 17.9 14.6C18.3 14.4 18.6 14.2 19 14C19.2 13.9 19.3 13.8 19.5 13.7C20 13.4 20.6 13.1 21.1 12.8C21.3 12.7 21.6 12.5 21.8 12.4C22.1 12.3 22.3 12.1 22.6 12C22.8 11.9 23 11.8 23.2 11.7C23.3 11.7 23.3 11.6 23.4 11.6C23.7 11.5 23.9 11.3 24.2 11.2C24.4 11.1 24.5 11 24.7 10.9C24.8 10.9 24.9 10.9 25 10.9H25.1C25.3 11 25.6 11 25.8 11.1C26.1 11.2 26.3 11.2 26.6 11.3C26.9 11.4 27.1 11.4 27.4 11.5C27.7 11.6 27.9 11.6 28.2 11.7C28.7 11.8 29.2 11.9 29.8 12C30.1 12.1 30.3 12.1 30.6 12.2C30.9 12.3 31.1 12.3 31.4 12.4C31.7 12.5 31.9 12.5 32.2 12.6C32.5 12.7 32.7 12.7 33 12.8C33.3 12.9 33.5 12.9 33.8 13C34.1 13.1 34.3 13.1 34.6 13.2C34.9 13.3 35.1 13.3 35.4 13.4C35.9 13.5 36.4 13.6 37 13.7C37.3 13.8 37.5 13.8 37.8 13.9C38.1 14 38.3 14 38.6 14.1C38.9 14.2 39.1 14.2 39.4 14.3C39.6 14.4 39.9 14.4 40.1 14.5C40.5 14.6 40.6 14.7 40.6 15.1C40.5 15.3 40.4 15.4 40.2 15.5C40 15.6 39.7 15.8 39.5 15.9H39.4C39.1 16 38.9 16.2 38.6 16.3C38.4 16.4 38.3 16.5 38.1 16.6C38 16.6 37.9 16.7 37.8 16.8C37.3 17.1 36.7 17.4 36.2 17.7C35.7 18 35.2 18.3 34.6 18.6C34.1 18.9 33.5 19.2 33 19.5C32.8 19.6 32.6 19.7 32.4 19.9C32.3 19.9 32.3 20 32.2 20C32 20.1 31.7 20.3 31.5 20.4C31.4 20.5 31.2 20.5 31.1 20.6C31 20.7 30.8 20.7 30.7 20.8C30.2 21.1 29.6 21.4 29.1 21.7C28.6 22 28.1 22.3 27.6 22.6C27.4 22.7 27.1 22.9 26.9 23C26.9 23 26.9 23 26.8 23C26.7 23 26.5 23 26.4 23C26 22.9 25.6 22.8 25.2 22.8C24.9 22.7 24.7 22.7 24.4 22.6C24.1 22.5 23.9 22.5 23.6 22.4C23.3 22.3 23.1 22.3 22.8 22.2C22.3 22.1 21.8 22 21.2 21.9C20.9 21.8 20.7 21.8 20.4 21.7C20.1 21.6 19.9 21.6 19.6 21.5C19.3 21.4 19.1 21.4 18.8 21.3C18.5 21.2 18.3 21.2 18 21.1C17.7 21 17.5 21 17.2 20.9C16.9 20.8 16.7 20.8 16.4 20.7C16.1 20.6 15.9 20.6 15.6 20.5C15.1 20.4 14.6 20.3 14 20.2C13.7 20.1 13.5 20.1 13.2 20C12.9 19.9 12.7 19.9 12.4 19.8C12.1 19.7 11.9 19.7 11.6 19.6C11.3 19.5 11.1 19.4 10.8 19.6C10.5 19.8 10.2 20 10.1 20.3C9.99999 20.4 9.99999 20.5 9.99999 20.7C9.79999 21.2 9.79999 21.8 9.99999 22.3C9.99999 22.4 10.1 22.6 10.2 22.7C10.4 22.9 10.6 23.1 10.8 23.2C11 23.3 11.3 23.4 11.6 23.4C12.1 23.5 12.6 23.6 13.2 23.7C13.5 23.8 13.7 23.8 14 23.9C14.3 24 14.5 24 14.8 24.1C15.3 24.2 15.8 24.3 16.4 24.4C16.7 24.5 16.9 24.5 17.2 24.6C17.5 24.7 17.7 24.7 18 24.8C18.3 24.9 18.5 24.9 18.8 25C18.9 25 18.9 25 19 25C19.3 25.2 19.4 25.4 19.2 25.8C19.1 25.9 19 25.9 18.8 26C18.5 25.9 18.3 25.9 18 25.8C17.9 25.8 17.9 25.8 17.8 25.8C17.3 25.7 16.9 25.6 16.4 25.5C16.1 25.4 15.9 25.4 15.6 25.3C15.3 25.2 15.1 25.2 14.8 25.1C14.3 25 13.8 24.9 13.2 24.8C12.9 24.7 12.7 24.7 12.4 24.6C12.1 24.5 11.9 24.5 11.6 24.4C11.3 24.3 11.1 24.3 10.8 24.5C10.5 24.6 10.4 24.8 10.2 25C9.9 25.5 9.79998 26 9.79998 26.6C9.79998 26.8 9.79998 27 9.89998 27.2C9.89998 27.3 9.89999 27.3 9.99999 27.4C10.2 27.7 10.4 28 10.7 28.1C10.7 28.1 10.8 28.2 10.9 28.2C11.1 28.3 11.3 28.3 11.5 28.4C11.8 28.5 12 28.5 12.3 28.6C12.6 28.7 12.8 28.7 13.1 28.8C13.4 28.9 13.6 28.9 13.9 29C14.4 29.1 14.9 29.2 15.5 29.3C15.8 29.4 16 29.4 16.3 29.5C16.6 29.6 16.8 29.6 17.1 29.7C17.4 29.8 17.6 29.8 17.9 29.9C18.4 30 18.9 30.1 19.5 30.2C19.8 30.3 20 30.3 20.3 30.4C20.6 30.5 20.8 30.5 21.1 30.6C21.6 30.7 22.1 30.8 22.7 30.9C23 31 23.2 31 23.5 31.1C23.8 31.2 24 31.2 24.3 31.3C24.6 31.4 24.8 31.4 25.1 31.5C25.5 31.6 25.9 31.7 26.3 31.8C26.4 31.8 26.4 31.8 26.5 31.8C26.8 31.6 27.1 31.4 27.5 31.2C28 30.9 28.6 30.6 29.1 30.3C29.3 30.2 29.5 30.1 29.7 30C29.8 30 29.8 29.9 29.9 29.9C30.2 29.8 30.4 29.6 30.7 29.5C30.8 29.4 31 29.4 31.1 29.3C31.2 29.2 31.4 29.2 31.5 29.1C32 28.8 32.6 28.5 33.1 28.2C33.6 27.9 34.1 27.6 34.7 27.3C34.9 27.2 35.2 27.1 35.4 26.9C35.4 26.9 35.5 26.9 35.5 26.8C35.8 26.7 36 26.5 36.3 26.4C36.5 26.3 36.7 26.2 36.9 26.1C37 26.1 37.1 26 37.2 25.9C37.4 25.8 37.7 25.6 37.9 25.5C38 25.4 38.1 25.4 38.2 25.3C38.4 25.2 38.5 25.1 38.7 25C39.1 24.8 39.5 24.6 39.9 24.4C40 24.3 40.2 24.3 40.3 24.3C40.4 24.3 40.5 24.4 40.6 24.5C40.7 24.8 40.7 25 40.4 25.2C40.4 25.2 40.3 25.2 40.3 25.3C40 25.4 39.8 25.6 39.5 25.7C39.3 25.8 39.2 25.9 39 26C38.9 26 38.8 26.1 38.7 26.2C38.5 26.3 38.2 26.5 38 26.6C37.9 26.6 37.8 26.7 37.7 26.8C37.5 26.9 37.4 27 37.2 27.1C36.7 27.4 36.1 27.7 35.6 28C35.1 28.3 34.6 28.6 34.1 28.9C33.9 29 33.7 29.1 33.5 29.2C33.4 29.2 33.4 29.3 33.3 29.3C32.8 29.6 32.2 29.9 31.7 30.2C31.4 30.4 31 30.5 30.7 30.8C30.5 30.9 30.3 31 30.1 31.1C29.6 31.4 29 31.7 28.5 32C28.3 32.1 28.1 32.2 27.9 32.4C27.9 32.4 27.8 32.4 27.8 32.5C27.5 32.6 27.3 32.8 27 32.9C26.7 33 26.5 32.8 26.2 32.8C25.9 32.7 25.7 32.7 25.4 32.6C25.1 32.5 24.9 32.5 24.6 32.4C24.5 32.4 24.4 32.3 24.3 32.3C23.9 32.2 23.5 32.1 23 32C22.7 31.9 22.5 31.9 22.2 31.8C21.9 31.7 21.7 31.7 21.4 31.6C20.9 31.5 20.4 31.4 19.8 31.3C19.5 31.2 19.3 31.2 19 31.1C18.7 31 18.5 31 18.2 30.9C17.9 30.8 17.7 30.8 17.4 30.7C16.9 30.6 16.4 30.5 15.8 30.4C15.5 30.3 15.3 30.3 15 30.2C14.7 30.1 14.5 30.1 14.2 30C13.9 29.9 13.7 29.9 13.4 29.8H13.3C13.1 29.7 12.8 29.7 12.6 29.6C12.3 29.5 12.1 29.5 11.8 29.4C11.5 29.3 11.3 29.3 11 29.5C10.8 29.6 10.7 29.7 10.6 29.8C10.2 30.2 9.99999 30.8 9.99999 31.4C9.99999 32 10.2 32.6 10.7 33C11 33.2 11.4 33.3 11.7 33.4C12 33.5 12.2 33.5 12.5 33.6C12.8 33.7 13 33.7 13.3 33.8C13.4 33.8 13.5 33.9 13.6 33.9C14 34 14.4 34.1 14.9 34.2C15.2 34.3 15.4 34.3 15.7 34.4C16 34.5 16.2 34.5 16.5 34.6C17 34.7 17.5 34.8 18.1 34.9C18.4 35 18.6 35 18.9 35.1C19.2 35.2 19.4 35.2 19.7 35.3C20 35.4 20.2 35.4 20.5 35.5C21 35.6 21.5 35.7 22.1 35.8C22.4 35.9 22.6 35.9 22.9 36C23.2 36.1 23.4 36.1 23.7 36.2C24 36.3 24.2 36.3 24.5 36.4C24.8 36.5 25 36.5 25.3 36.6C25.6 36.7 25.8 36.7 26.1 36.8C26.4 36.9 26.6 37 26.9 36.8C27.1 36.7 27.3 36.6 27.5 36.5C27.6 36.5 27.6 36.4 27.7 36.4C28.2 36.1 28.8 35.8 29.3 35.5C29.7 35.3 30 35.1 30.4 34.9C30.5 34.8 30.7 34.8 30.8 34.6C30.8 34.6 30.8 34.6 30.9 34.6C31.4 34.3 31.9 34 32.5 33.7C32.7 33.6 32.9 33.5 33.1 33.3C33.1 33.3 33.2 33.3 33.2 33.2C33.5 33.1 33.7 32.9 34 32.8C34.2 32.7 34.3 32.7 34.4 32.6C34.5 32.6 34.6 32.5 34.8 32.4C35.3 32.1 35.9 31.8 36.4 31.5C36.9 31.2 37.4 30.9 37.9 30.6C38.2 30.5 38.4 30.3 38.7 30.2C39 30.1 39.2 29.9 39.5 29.8C39.7 29.7 39.9 29.6 40 29.5C40.1 29.5 40.2 29.5 40.2 29.5H40.3C40.6 29.7 40.7 29.9 40.5 30.2C40.4 30.3 40.3 30.4 40.2 30.4C39.7 30.7 39.1 31 38.6 31.3C38.3 31.4 38.1 31.6 37.8 31.7C37.5 31.8 37.3 32 37 32.1C36.8 32.2 36.6 32.3 36.5 32.4C36.4 32.4 36.3 32.5 36.3 32.5C35.8 32.8 35.2 33.1 34.7 33.4C34.2 33.7 33.7 34 33.1 34.3C32.6 34.6 32 34.9 31.5 35.2C31.3 35.3 31.1 35.4 30.9 35.6C30.8 35.6 30.8 35.7 30.7 35.7C30.5 35.8 30.2 36 30 36.1C29.8 36.2 29.6 36.3 29.5 36.4C29.4 36.4 29.3 36.5 29.2 36.5C28.7 36.8 28.1 37.1 27.6 37.4C27.4 37.5 27.1 37.7 26.9 37.8C26.8 37.8 26.6 37.8 26.5 37.8C26.4 37.8 26.2 37.7 26.1 37.7C25.8 37.6 25.6 37.6 25.3 37.5C25 37.4 24.8 37.4 24.5 37.3C24.2 37.2 24 37.2 23.7 37.1C23.2 37 22.7 36.9 22.1 36.8C21.8 36.7 21.6 36.7 21.3 36.6C21 36.5 20.8 36.5 20.5 36.4C20.2 36.3 20 36.3 19.7 36.2C19.4 36.1 19.2 36.1 18.9 36H18.8C18.6 35.9 18.4 35.9 18.1 35.9C17.8 35.8 17.6 35.8 17.3 35.7C17 35.6 16.8 35.6 16.5 35.5C16 35.4 15.5 35.3 14.9 35.2C14.6 35.1 14.4 35.1 14.1 35C13.8 34.9 13.6 34.9 13.3 34.8C13 34.7 12.8 34.7 12.5 34.6C12.4 34.6 12.3 34.6 12.3 34.6C11.9 34.5 11.4 34.4 11 34.3C10.7 34.2 10.5 34.1 10.2 33.9C10.2 33.9 10.1 33.9 10.1 33.8C9.59999 33.4 9.29999 32.9 9.09999 32.2C8.99999 31.9 8.99999 31.7 8.99999 31.4C8.99999 31.1 8.99999 30.9 9.09999 30.6C9.19999 30.3 9.29998 30.1 9.39998 29.8C9.39998 29.8 9.39999 29.7 9.49999 29.7C9.69999 29.5 9.79999 29.2 9.99999 29L10.1 28.9C10.2 28.9 10.2 28.8 10.1 28.8C9.59999 28.5 9.4 28 9.2 27.5C9.1 27.2 9.09999 27 9.09999 26.7C9.09999 26.4 9.09999 26.2 9.09999 25.9C9.09999 25.7 9.19998 25.4 9.29998 25.2C9.29998 25.1 9.39998 25 9.39998 24.9C9.49998 24.7 9.59998 24.6 9.79998 24.4C9.89998 24.3 9.99999 24.2 10.1 24.1C10.2 24.1 10.2 24 10.1 24C9.69999 23.7 9.4 23.3 9.2 22.9C9.1 22.6 9.09999 22.4 8.99999 22.1C8.99999 21.8 8.99999 21.6 8.99999 21.3C8.89999 20.8 8.89999 20.5 8.99999 20.2ZM30.8 15.5C30.8 15.5 30.7 15.5 30.8 15.5C29.1 15.1 27.5 14.8 25.9 14.4C25.8 14.4 25.8 14.4 25.7 14.4C24.8 14.9 23.9 15.4 23 15.9C22.9 15.9 22.9 16 22.8 16H22.9C24.5 16.4 26.1 16.7 27.7 17.1C27.8 17.1 27.9 17.1 27.9 17C28.3 16.8 28.7 16.5 29.1 16.3C29.7 16.1 30.3 15.8 30.8 15.5Z" fill="#FB614E"/>
<path d="M39.8 19.1C40 19.2 40.1 19.3 40.2 19.5C40.2 19.8 40.1 19.9 39.9 20C39.6 20.2 39.3 20.3 39 20.5C38.5 20.8 38 21.1 37.5 21.4C37.3 21.5 37 21.6 36.8 21.8H36.7C36.4 21.9 36.2 22.1 35.9 22.2C35.7 22.3 35.5 22.4 35.3 22.5C35.2 22.5 35.2 22.6 35.1 22.6C34.8 22.7 34.6 22.9 34.3 23C34.2 23.1 34.1 23.1 33.9 23.2C33.7 23.3 33.6 23.3 33.5 23.4C33 23.7 32.4 24 31.9 24.3C31.4 24.6 30.9 24.9 30.3 25.2C30.1 25.3 29.8 25.4 29.6 25.6C29.6 25.6 29.5 25.6 29.5 25.7C29.2 25.8 29 26 28.7 26.1C28.6 26.2 28.4 26.3 28.3 26.3C28.2 26.4 28.1 26.4 28 26.5C27.6 26.7 27.3 26.9 26.9 27.1C26.7 27.2 26.6 27.3 26.4 27.4C26.3 27.4 26.1 27.4 26 27.4C25.9 27.4 25.7 27.3 25.6 27.3C25.3 27.2 25.1 27.2 24.8 27.1H24.7C24.5 27 24.3 27 24 27C23.7 26.9 23.5 26.9 23.2 26.8C23.1 26.8 23.1 26.8 23 26.7C22.8 26.7 22.6 26.6 22.5 26.5C22.5 26.5 22.5 26.4 22.4 26.4C22.4 26.3 22.4 26.2 22.4 26C22.5 25.8 22.7 25.7 22.9 25.8C23 25.8 23.1 25.8 23.2 25.8C23.5 25.9 23.7 25.9 24 26C24.3 26.1 24.5 26.1 24.8 26.2C25.1 26.3 25.3 26.3 25.6 26.4C25.9 26.5 26.2 26.6 26.4 26.3C26.7 26.2 26.9 26 27.1 25.9C27.3 25.8 27.4 25.8 27.5 25.7C27.6 25.7 27.7 25.6 27.8 25.5C28.3 25.2 28.9 24.9 29.4 24.6C29.9 24.3 30.4 24 30.9 23.7C31.1 23.6 31.3 23.5 31.5 23.3C31.6 23.3 31.6 23.3 31.7 23.2C32 23.1 32.2 22.9 32.5 22.8C32.7 22.7 32.8 22.6 33 22.5C33.1 22.4 33.2 22.4 33.3 22.3C33.6 22.2 33.8 22 34.1 21.9C34.2 21.9 34.3 21.8 34.4 21.7C34.6 21.6 34.7 21.5 34.9 21.4C35.4 21.1 36 20.8 36.5 20.5C36.7 20.4 37 20.2 37.2 20.1H37.3C37.6 20 37.8 19.8 38.1 19.7C38.3 19.6 38.5 19.5 38.6 19.4C38.7 19.4 38.8 19.3 38.8 19.3C38.9 19.3 38.9 19.2 39 19.2C39.4 19.2 39.5 19 39.8 19.1Z" fill="#FB614E"/>
<path d="M30.8 15.5C30.3 15.8 29.7 16.1 29.2 16.4C28.8 16.6 28.4 16.9 28 17.1C27.9 17.1 27.9 17.2 27.8 17.2C26.2 16.8 24.6 16.5 23 16.1C23 16.1 23 16.1 22.9 16.1C22.9 16 23 16 23.1 16C24 15.5 24.9 15 25.8 14.5C25.9 14.5 25.9 14.4 26 14.5C27.5 14.8 29.1 15.1 30.8 15.5C30.7 15.5 30.8 15.5 30.8 15.5Z" fill="#FDBA11"/>
<path d="M19.7 25.7C19.7 25.4 19.7 25.2 19.7 24.9C19.7 24.6 19.7 24.4 19.7 24.1C19.7 23.8 19.7 23.6 19.7 23.3V23.2C19.7 23.1 19.6 22.9 19.7 22.8C19.8 22.7 20 22.8 20.1 22.8C20.4 22.8 20.6 22.9 20.9 22.9C21.2 23 21.4 23 21.7 23C21.8 23 21.9 23 22 23.1C22.1 23.1 22.1 23.2 22.1 23.2C22.1 23.5 22.1 23.7 22.1 24C22.1 24.3 22.1 24.5 22.1 24.8C22.1 25.1 22.1 25.3 22.1 25.6C22.1 25.9 22.1 26.1 22.1 26.4C22.1 26.7 22.1 26.9 22.1 27.2C22.1 27.5 22.1 27.7 22.1 28C22.1 28.1 22.1 28.3 22.1 28.4C22 28.3 21.9 28.2 21.8 28.1C21.8 28.1 21.8 28 21.7 28C21.5 27.7 21.2 27.5 21 27.2C21 27.1 20.9 27.1 20.8 27.1C20.6 27.2 20.4 27.4 20.2 27.5C20.1 27.6 20 27.6 19.9 27.7C19.8 27.8 19.8 27.7 19.8 27.6C19.8 27.5 19.8 27.3 19.8 27.2C19.8 26.9 19.8 26.7 19.8 26.4C19.7 26.3 19.7 26 19.7 25.7Z" fill="#FDBA11"/>
</svg>
