<svg width="68" height="68" viewBox="0 0 68 68" fill="none" xmlns="http://www.w3.org/2000/svg">
<path opacity="0.56" d="M0.800049 29.1C1.50005 28.5 1.40005 27.6 1.60005 26.8C4.90005 11.4 19.0001 0.500011 35.1001 1.00001C50.5001 1.50001 64 13.4 66.3 28.7C69 46.7 57.2 63.5 39.8 66.5C21.5 69.6 4.90005 58.1 1.30005 40C1.20005 39.5 1.40005 38.8 0.800049 38.4C0.800049 35.2 0.800049 32.1 0.800049 29.1ZM33.8 15.5C28.1 15.5 22.4 15.5 16.7 15.5C13.9 15.5 13.1001 16.3 13.1001 19C13.1001 28.9 13.1001 38.8 13.1001 48.6C13.1001 51.5 13.9 52.3 16.7 52.3C28.1 52.3 39.4 52.3 50.8 52.3C53.7 52.3 54.5 51.5 54.5 48.6C54.5 38.7 54.5 28.8 54.5 19C54.5 16.2 53.7 15.4 51 15.4C45.2 15.5 39.5 15.5 33.8 15.5Z" fill="#11198B" stroke="#11198B" stroke-width="0.75" stroke-miterlimit="10"/>
<path d="M33.8 15.5C39.5 15.5 45.2 15.5 50.9 15.5C53.7 15.5 54.4 16.3 54.4 19.1C54.4 29 54.4 38.9 54.4 48.7C54.4 51.6 53.6 52.4 50.7 52.4C39.3 52.4 28 52.4 16.6 52.4C13.8 52.4 13 51.6 13 48.7C13 38.8 13 28.9 13 19.1C13 16.4 13.8 15.6 16.6 15.6C22.3 15.5 28 15.5 33.8 15.5ZM46.6 20.9C46.1 20.2 47.3 18.7 45.6 18.6C43.5 18.4 44.6 20.1 44.2 20.9C42.4 20.9 40.6 20.9 38.9 20.9C38.4 20.2 39.6 18.7 37.9 18.6C35.8 18.4 37 20.1 36.5 20.9C34.7 20.9 32.9 20.9 31.2 20.9C30.6 20.2 31.9 18.8 30.4 18.6C28.2 18.2 29.2 20 28.8 20.9C27 20.9 25.2 20.9 23.4 20.9C23 20.1 24.1 18.3 22 18.6C20.5 18.8 21.6 20.2 21.1 20.9C19.8 20.9 18.4 20.9 17.1 20.9C16.6 20.9 15.9 20.8 15.9 21.5C16 24.1 15.3 26.7 16.3 29.2C16.2 29.5 15.9 29.8 15.9 30.1C15.9 36.3 15.9 42.5 15.9 48.8C15.9 49.8 16.5 49.9 17.3 49.9C19.4 49.9 21.5 50.1 23.6 49.9C27 49.6 30.3 49.8 33.7 49.8C37.1 49.8 40.5 49.4 44 49.9C44.3 49.9 44.6 49.7 44.9 49.7C46.1 49.6 46.4 48.9 46.4 47.8C46.4 44.2 46.4 44.1 50 44.2C51.5 44.2 51.8 43.7 51.8 42.3C51.7 38.6 51.7 35 51.8 31.3C51.8 30 51.3 29.5 50.2 29.2C51.4 29.2 52.1 28.7 51.9 27.4C51.8 27 51.9 26.5 51.9 26.1C51.7 20.9 51.7 20.9 46.6 20.9Z" fill="#E4E6EB"/>
<path d="M50.0001 29.2C51.1001 29.4 51.6001 29.9 51.6001 31.3C51.5001 35 51.5001 38.6 51.6001 42.3C51.6001 43.7 51.3001 44.2 49.8001 44.2C46.2001 44.2 46.2001 44.2 46.2001 47.8C46.2001 49 45.9001 49.6 44.7001 49.7C44.4001 49.7 44.1001 49.9 43.8001 49.9C40.4001 49.4 36.9001 49.8 33.5001 49.8C30.2001 49.8 26.8001 49.6 23.4001 49.9C21.3001 50.1 19.2001 49.9 17.1001 49.9C16.3001 49.9 15.7001 49.8 15.7001 48.8C15.7001 42.6 15.7001 36.4 15.7001 30.1C15.7001 29.8 15.9001 29.5 16.1001 29.2C27.5001 29.2 38.7001 29.2 50.0001 29.2ZM20.0001 43C18.3001 42.7 17.7001 43.2 17.7001 45C17.7001 46.7 18.1001 47.5 19.9001 47.2C21.0001 47.1 22.4001 47.5 22.2001 45.6C22.1001 44.3 22.5001 42.4 20.0001 43ZM33.3001 35.2C34.9001 35.6 35.6001 35.1 35.5001 33.3C35.4001 31.8 35.4001 30.8 33.4001 30.9C32.0001 31 31.0001 31 31.2001 32.9C31.3001 34.4 31.2001 35.7 33.3001 35.2ZM42.3001 39.3C42.7001 37.6 42.1001 37 40.2001 37C38.6001 37 37.9001 37.3 38.0001 39.1C38.0001 40.7 38.3001 41.5 40.2001 41.4C41.7001 41.3 42.8001 41.2 42.3001 39.3ZM26.6001 35.2C28.1001 35.5 29.0001 35.2 28.9001 33.3C28.8001 31.8 28.9001 30.7 26.8001 30.9C25.4001 31 24.4001 31 24.5001 32.9C24.7001 34.4 24.5001 35.7 26.6001 35.2ZM24.7001 45.1C24.2001 47 25.2001 47.3 26.8001 47.3C28.5001 47.3 28.9001 46.8 28.9001 45.1C28.9001 43.3 28.4001 42.9 26.6001 42.9C25.0001 42.9 24.3001 43.3 24.7001 45.1ZM42.3001 33.2C42.3001 31 42.3001 31.1 40.1001 30.9C38.2001 30.7 38.1001 31.6 38.0001 33.2C37.8001 35.3 39.0001 35.1 40.4001 35.2C42.4001 35.4 42.5001 34.4 42.3001 33.2ZM27.0001 41.3C29.2001 42 28.8001 40.3 28.9001 39C29.1001 37 28.0001 37.2 26.6001 37C24.5001 36.8 24.7001 38 24.6001 39.4C24.4001 41.4 25.5001 41.5 27.0001 41.3ZM46.8001 35.2C48.4001 35.6 49.1001 35.1 49.0001 33.3C49.0001 31.8 48.9001 30.8 46.9001 31C45.5001 31.1 44.5001 31.1 44.7001 33C44.8001 34.4 44.7001 35.7 46.8001 35.2ZM48.9001 39.3C49.3001 37.5 48.6001 37 46.8001 37C45.4001 37.1 44.6001 37.2 44.6001 38.9C44.7001 40.5 44.8001 41.4 46.8001 41.3C48.3001 41.3 49.4001 41.2 48.9001 39.3ZM35.4001 39.2C35.9001 37.2 34.8001 37.2 33.2001 37.1C31.3001 37 31.2001 37.9 31.2001 39.4C31.1001 41.2 31.9001 41.5 33.5001 41.5C35.2001 41.5 35.8001 40.9 35.4001 39.2ZM21.9001 39.2C22.4001 37.5 21.6001 37 19.9001 37.1C18.4001 37.1 17.5001 37.2 17.6001 39.1C17.7001 40.8 18.0001 41.5 19.8001 41.4C21.6001 41.4 22.4001 41 21.9001 39.2ZM33.3001 47.2C35.2001 47.7 35.5001 46.6 35.5001 45C35.5001 43.4 35.1001 42.9 33.5001 42.9C31.8001 42.9 31.1001 43.3 31.2001 45.1C31.2001 46.8 31.6001 47.6 33.3001 47.2Z" fill="#FAFBFA"/>
<path d="M50.0001 29.2C38.7001 29.2 27.4001 29.2 16.1001 29.2C15.1001 26.7 15.8001 24.1 15.7001 21.5C15.7001 20.8 16.4001 20.9 16.9001 20.9C18.2001 20.9 19.6001 20.9 20.9001 20.9C21.3001 21.5 20.5001 22.6 21.8001 22.8C23.6001 23.1 23.0001 21.7 23.2001 20.8C25.0001 20.8 26.8001 20.8 28.6001 20.8C29.0001 21.4 28.1001 22.5 29.5001 22.7C31.3001 23 30.9001 21.7 31.0001 20.8C32.8001 20.8 34.6001 20.8 36.3001 20.8C36.6001 21.4 35.8001 22.6 37.2001 22.7C39.0001 23 38.5001 21.7 38.7001 20.8C40.5001 20.8 42.3001 20.8 44.0001 20.8C44.3001 21.4 43.5001 22.5 44.8001 22.8C46.6001 23.1 46.3001 21.8 46.4001 20.9C51.5001 20.9 51.5001 20.9 51.5001 26C51.5001 26.4 51.4001 26.9 51.5001 27.3C51.9001 28.7 51.3001 29.2 50.0001 29.2Z" fill="#FD7059"/>
<path d="M20.0001 43C22.5001 42.4 22.0001 44.3 22.2001 45.6C22.4001 47.5 21.0001 47 19.9001 47.2C18.1001 47.4 17.7001 46.7 17.7001 45C17.7001 43.2 18.3001 42.7 20.0001 43Z" fill="#85D9FC"/>
<path d="M33.3001 35.2C31.2001 35.8 31.3 34.4 31.2 33C31 31.1 32 31.1 33.4 31C35.4 30.8 35.4 31.8 35.5 33.4C35.6 35.1 34.9001 35.6 33.3001 35.2Z" fill="#85D9FC"/>
<path d="M42.3 39.3C42.8 41.2 41.7 41.3 40.2 41.4C38.3 41.5 38.1 40.8 38 39.1C38 37.3 38.6 37.1 40.2 37C42 37 42.7 37.6 42.3 39.3Z" fill="#85D9FC"/>
<path d="M26.6001 35.2C24.5001 35.7 24.7001 34.4 24.6001 32.9C24.4001 31 25.5001 31 26.9001 30.9C28.9001 30.7 28.9001 31.8 29.0001 33.3C29.0001 35.2 28.1001 35.5 26.6001 35.2Z" fill="#85D9FC"/>
<path d="M24.7 45.1C24.3 43.4 25 42.9 26.7 42.9C28.4 42.9 29 43.3 29 45.1C29 46.7 28.6 47.3 26.9 47.3C25.1 47.2 24.2 46.9 24.7 45.1Z" fill="#85D9FC"/>
<path d="M42.3 33.2C42.5 34.4 42.4 35.4 40.4 35.3C39 35.2 37.8 35.4 38 33.3C38.1 31.7 38.2 30.8 40.1 31C42.3 31.1 42.3 31 42.3 33.2Z" fill="#85D9FC"/>
<path d="M27 41.3C25.5 41.5 24.4 41.4 24.6 39.5C24.7 38.1 24.5 36.9 26.6 37.1C28 37.2 29.1 37.1 28.9 39.1C28.7 40.3 29.2 41.9 27 41.3Z" fill="#85D9FC"/>
<path d="M46.8 35.2C44.7 35.8 44.8 34.4 44.7 33C44.5 31.1 45.5 31.1 46.9 31C48.9 30.8 49 31.8 49 33.3C49 35.1 48.4 35.6 46.8 35.2Z" fill="#85D9FC"/>
<path d="M48.9 39.3C49.4 41.2 48.3 41.3 46.8 41.4C44.8 41.5 44.7 40.5 44.6 39C44.5 37.2 45.3 37.1 46.8 37.1C48.6 37 49.3 37.5 48.9 39.3Z" fill="#85D9FC"/>
<path d="M35.4001 39.2C35.8001 40.9 35.2001 41.5 33.4001 41.4C31.8001 41.4 31.1001 41.1 31.1001 39.3C31.2001 37.8 31.3001 36.9 33.1001 37C34.7001 37.1 35.9001 37.2 35.4001 39.2Z" fill="#85D9FC"/>
<path d="M21.9001 39.2C22.3001 41 21.5001 41.4 19.9001 41.4C18.0001 41.4 17.7001 40.7 17.7001 39.1C17.6001 37.2 18.5001 37.1 20.0001 37.1C21.6001 37 22.4001 37.5 21.9001 39.2Z" fill="#85D9FC"/>
<path d="M33.3001 47.2C31.5001 47.6 31.2001 46.8 31.1001 45.2C31.1001 43.3 31.8001 43 33.4001 43C35.0001 43 35.4001 43.5 35.4001 45.1C35.5001 46.6 35.2001 47.6 33.3001 47.2Z" fill="#85D9FC"/>
</svg>
