<svg width="68" height="68" viewBox="0 0 68 68" fill="none" xmlns="http://www.w3.org/2000/svg">
<path opacity="0.56" d="M0.800049 29.22C1.50005 28.62 1.40005 27.72 1.60005 26.92C4.90005 11.52 19.0001 0.620037 35.1001 1.12004C50.5001 1.62004 64 13.52 66.3 28.82C69 46.82 57.2 63.62 39.8 66.62C21.5 69.72 4.90005 58.22 1.30005 40.12C1.20005 39.62 1.40005 38.92 0.800049 38.52C0.800049 35.32 0.800049 32.22 0.800049 29.22ZM33.8 15.62C28.1 15.62 22.4 15.62 16.7 15.62C13.9 15.62 13.1001 16.42 13.1001 19.12C13.1001 29.02 13.1001 38.92 13.1001 48.72C13.1001 51.62 13.9 52.42 16.7 52.42C28.1 52.42 39.4 52.42 50.8 52.42C53.7 52.42 54.5 51.62 54.5 48.72C54.5 38.82 54.5 28.92 54.5 19.12C54.5 16.32 53.7 15.52 51 15.52C45.2 15.62 39.5 15.62 33.8 15.62Z" fill="#1927F4" stroke="#4147A2" stroke-width="0.75" stroke-miterlimit="10"/>
<path d="M33.8 15.62C39.5 15.62 45.2 15.62 50.9 15.62C53.7 15.62 54.4 16.42 54.4 19.22C54.4 29.12 54.4 39.02 54.4 48.82C54.4 51.72 53.6 52.5201 50.7 52.5201C39.3 52.5201 28 52.5201 16.6 52.5201C13.8 52.5201 13 51.72 13 48.82C13 38.92 13 29.02 13 19.22C13 16.52 13.8 15.72 16.6 15.72C22.3 15.62 28 15.62 33.8 15.62ZM46.6 21.02C46.1 20.32 47.3 18.82 45.6 18.72C43.5 18.52 44.6 20.22 44.2 21.02C42.4 21.02 40.6 21.02 38.9 21.02C38.4 20.32 39.6 18.82 37.9 18.72C35.8 18.52 37 20.22 36.5 21.02C34.7 21.02 32.9 21.02 31.2 21.02C30.6 20.32 31.9 18.92 30.4 18.72C28.2 18.32 29.2 20.12 28.8 21.02C27 21.02 25.2 21.02 23.4 21.02C23 20.22 24.1 18.42 22 18.72C20.5 18.92 21.6 20.32 21.1 21.02C19.8 21.02 18.4 21.02 17.1 21.02C16.6 21.02 15.9 20.92 15.9 21.62C16 24.22 15.3 26.82 16.3 29.32C16.2 29.62 15.9 29.92 15.9 30.22C15.9 36.42 15.9 42.62 15.9 48.92C15.9 49.92 16.5 50.0201 17.3 50.0201C19.4 50.0201 21.5 50.2201 23.6 50.0201C27 49.7201 30.3 49.92 33.7 49.92C37.1 49.92 40.5 49.5201 44 50.0201C44.3 50.0201 44.6 49.82 44.9 49.82C46.1 49.72 46.4 49.02 46.4 47.92C46.4 44.32 46.4 44.22 50 44.32C51.5 44.32 51.8 43.82 51.8 42.42C51.7 38.72 51.7 35.12 51.8 31.42C51.8 30.12 51.3 29.62 50.2 29.32C51.4 29.32 52.1 28.82 51.9 27.52C51.8 27.12 51.9 26.62 51.9 26.22C51.7 21.02 51.7 21.02 46.6 21.02Z" fill="#E4E6EB"/>
<path d="M50 29.32C51.1 29.52 51.6 30.02 51.6 31.42C51.5 35.12 51.5 38.72 51.6 42.42C51.6 43.82 51.2999 44.32 49.7999 44.32C46.1999 44.32 46.2 44.32 46.2 47.92C46.2 49.12 45.9 49.72 44.7 49.82C44.4 49.82 44.0999 50.0201 43.7999 50.0201C40.3999 49.5201 36.9 49.92 33.5 49.92C30.2 49.92 26.7999 49.7201 23.3999 50.0201C21.2999 50.2201 19.2 50.0201 17.1 50.0201C16.3 50.0201 15.7 49.92 15.7 48.92C15.7 42.72 15.7 36.52 15.7 30.22C15.7 29.92 15.9 29.62 16.1 29.32C27.5 29.32 38.7 29.32 50 29.32ZM20 43.12C18.3 42.82 17.7 43.32 17.7 45.12C17.7 46.82 18.0999 47.62 19.8999 47.32C20.9999 47.22 22.4 47.62 22.2 45.72C22.1 44.42 22.5 42.52 20 43.12ZM33.3 35.32C34.9 35.72 35.6 35.22 35.5 33.42C35.4 31.92 35.3999 30.92 33.3999 31.02C31.9999 31.12 31 31.12 31.2 33.02C31.3 34.52 31.2 35.82 33.3 35.32ZM42.2999 39.42C42.6999 37.72 42.1 37.12 40.2 37.12C38.6 37.12 37.9 37.42 38 39.22C38 40.82 38.3 41.62 40.2 41.52C41.7 41.42 42.7999 41.32 42.2999 39.42ZM26.6 35.32C28.1 35.62 28.9999 35.32 28.8999 33.42C28.7999 31.92 28.9 30.82 26.8 31.02C25.4 31.12 24.4 31.12 24.5 33.02C24.7 34.52 24.5 35.82 26.6 35.32ZM24.7 45.22C24.2 47.12 25.2 47.42 26.8 47.42C28.5 47.42 28.8999 46.92 28.8999 45.22C28.8999 43.42 28.4 43.0201 26.6 43.0201C25 43.0201 24.3 43.42 24.7 45.22ZM42.2999 33.32C42.2999 31.12 42.3 31.22 40.1 31.02C38.2 30.82 38.1 31.72 38 33.32C37.8 35.42 38.9999 35.22 40.3999 35.32C42.3999 35.52 42.4999 34.52 42.2999 33.32ZM27 41.42C29.2 42.12 28.7999 40.42 28.8999 39.12C29.0999 37.12 28 37.32 26.6 37.12C24.5 36.92 24.7 38.12 24.6 39.52C24.4 41.52 25.5 41.62 27 41.42ZM46.7999 35.32C48.3999 35.72 49.1 35.22 49 33.42C49 31.92 48.8999 30.92 46.8999 31.12C45.4999 31.22 44.5 31.22 44.7 33.12C44.8 34.52 44.6999 35.82 46.7999 35.32ZM48.8999 39.42C49.2999 37.62 48.5999 37.12 46.7999 37.12C45.3999 37.22 44.6 37.32 44.6 39.02C44.7 40.62 44.7999 41.52 46.7999 41.42C48.2999 41.42 49.3999 41.32 48.8999 39.42ZM35.3999 39.32C35.8999 37.32 34.8 37.32 33.2 37.22C31.3 37.12 31.2 38.02 31.2 39.52C31.1 41.32 31.9 41.62 33.5 41.62C35.2 41.62 35.7999 41.02 35.3999 39.32ZM21.8999 39.32C22.3999 37.62 21.5999 37.12 19.8999 37.22C18.3999 37.22 17.5 37.32 17.6 39.22C17.7 40.92 18 41.62 19.8 41.52C21.6 41.52 22.3999 41.12 21.8999 39.32ZM33.3 47.32C35.2 47.82 35.5 46.72 35.5 45.12C35.5 43.52 35.1 43.0201 33.5 43.0201C31.8 43.0201 31.1 43.42 31.2 45.22C31.2 46.92 31.6 47.72 33.3 47.32Z" fill="#FAFBFA"/>
<path d="M50 29.32C38.7 29.32 27.4 29.32 16.1 29.32C15.1 26.82 15.8 24.22 15.7 21.62C15.7 20.92 16.4 21.02 16.9 21.02C18.2 21.02 19.6 21.02 20.9 21.02C21.3 21.62 20.5 22.72 21.8 22.92C23.6 23.22 23 21.82 23.2 20.92C25 20.92 26.8 20.92 28.6 20.92C29 21.52 28.1 22.62 29.5 22.82C31.3 23.12 30.9 21.82 31 20.92C32.8 20.92 34.6 20.92 36.3 20.92C36.6 21.52 35.8 22.72 37.2 22.82C39 23.12 38.5 21.82 38.7 20.92C40.5 20.92 42.3 20.92 44 20.92C44.3 21.52 43.5 22.62 44.8 22.92C46.6 23.22 46.3 21.92 46.4 21.02C51.5 21.02 51.5 21.02 51.5 26.12C51.5 26.52 51.4 27.02 51.5 27.42C51.9 28.82 51.3 29.32 50 29.32Z" fill="#272947"/>
<path d="M20 43.12C22.5 42.52 22 44.42 22.2 45.72C22.4 47.62 20.9999 47.12 19.8999 47.32C18.0999 47.52 17.7 46.82 17.7 45.12C17.7 43.32 18.3 42.82 20 43.12Z" fill="#85D9FC"/>
<path d="M33.3001 35.32C31.2001 35.92 31.3 34.52 31.2 33.12C31 31.22 32 31.22 33.4 31.12C35.4 30.92 35.4 31.92 35.5 33.52C35.6 35.22 34.9001 35.72 33.3001 35.32Z" fill="#85D9FC"/>
<path d="M42.3 39.42C42.8 41.32 41.7 41.42 40.2 41.52C38.3 41.62 38.1 40.92 38 39.22C38 37.42 38.6 37.22 40.2 37.12C42 37.12 42.7 37.72 42.3 39.42Z" fill="#85D9FC"/>
<path d="M26.6 35.32C24.5 35.82 24.7 34.52 24.6 33.02C24.4 31.12 25.5 31.12 26.9 31.02C28.9 30.82 28.9 31.92 29 33.42C29 35.32 28.1 35.62 26.6 35.32Z" fill="#85D9FC"/>
<path d="M24.7002 45.22C24.3002 43.52 25.0002 43.0201 26.7002 43.0201C28.4002 43.0201 29.0002 43.42 29.0002 45.22C29.0002 46.82 28.6002 47.42 26.9002 47.42C25.1002 47.32 24.2002 47.02 24.7002 45.22Z" fill="#85D9FC"/>
<path d="M42.3001 33.32C42.5001 34.52 42.4002 35.52 40.4002 35.42C39.0002 35.32 37.8002 35.52 38.0002 33.42C38.1002 31.82 38.2002 30.92 40.1002 31.12C42.3002 31.22 42.3001 31.12 42.3001 33.32Z" fill="#85D9FC"/>
<path d="M27.0002 41.42C25.5002 41.62 24.4002 41.52 24.6002 39.62C24.7002 38.22 24.5002 37.02 26.6002 37.22C28.0002 37.32 29.1002 37.22 28.9002 39.22C28.7002 40.42 29.2002 42.02 27.0002 41.42Z" fill="#85D9FC"/>
<path d="M46.8 35.32C44.7 35.92 44.8 34.52 44.7 33.12C44.5 31.22 45.5 31.22 46.9 31.12C48.9 30.92 49 31.92 49 33.42C49 35.22 48.4 35.72 46.8 35.32Z" fill="#85D9FC"/>
<path d="M48.9002 39.42C49.4002 41.32 48.3001 41.42 46.8001 41.52C44.8001 41.62 44.7002 40.62 44.6002 39.12C44.5002 37.32 45.3001 37.22 46.8001 37.22C48.6001 37.12 49.3002 37.62 48.9002 39.42Z" fill="#85D9FC"/>
<path d="M35.4001 39.3201C35.8001 41.0201 35.2001 41.62 33.4001 41.52C31.8001 41.52 31.1001 41.22 31.1001 39.42C31.2001 37.92 31.3001 37.02 33.1001 37.12C34.7001 37.22 35.9001 37.3201 35.4001 39.3201Z" fill="#85D9FC"/>
<path d="M21.8999 39.32C22.2999 41.12 21.4999 41.52 19.8999 41.52C17.9999 41.52 17.6999 40.82 17.6999 39.22C17.5999 37.32 18.4999 37.22 19.9999 37.22C21.5999 37.12 22.3999 37.62 21.8999 39.32Z" fill="#85D9FC"/>
<path d="M33.3001 47.32C31.5001 47.72 31.2001 46.92 31.1001 45.32C31.1001 43.42 31.8001 43.12 33.4001 43.12C35.0001 43.12 35.4001 43.62 35.4001 45.22C35.5001 46.72 35.2001 47.72 33.3001 47.32Z" fill="#85D9FC"/>
</svg>
