<svg width="49" height="49" viewBox="0 0 49 49" fill="none" xmlns="http://www.w3.org/2000/svg">
<path d="M24.5 48.5C37.7548 48.5 48.5 37.7548 48.5 24.5C48.5 11.2452 37.7548 0.5 24.5 0.5C11.2452 0.5 0.5 11.2452 0.5 24.5C0.5 37.7548 11.2452 48.5 24.5 48.5Z" fill="#ffffff"/>
<path d="M37.9 36.4C37.9 36.6 38 36.9 37.8 37C37.7 37.1 37.4 37 37.2 37.1C37.1 37.1 37 37.1 36.9 37.1C36.6 37.1 36.3 37.1 36.1 37.1C36 37.1 35.9 37.1 35.8 37.1C35.5 37.1 35.2 37.1 35 37.1C34.9 37.1 34.8 37.1 34.7 37.1C34.4 37.1 34.1 37.1 33.9 37.1C33.8 37.1 33.7 37.1 33.6 37.1C33.3 37.1 33 37.1 32.8 37.1C32.7 37.1 32.6 37.1 32.5 37.1C32.2 37.1 31.9 37.1 31.7 37.1C31.6 37.1 31.5 37.1 31.4 37.1C31.1 37.1 30.8 37.1 30.6 37.1C30.5 37.1 30.4 37.1 30.3 37.1C30 37.1 29.7 37.1 29.5 37.1C29.4 37.1 29.3 37.1 29.2 37.1C28.9 37.1 28.6 37.1 28.4 37.1C28.3 37.1 28.2 37.1 28.1 37.1C27.8 37.1 27.5 37.1 27.3 37.1C27.2 37.1 27.1 37.1 27 37.1C26.7 37.1 26.4 37.1 26.2 37.1C26.1 37.1 26 37.1 25.9 37.1C25.6 37.1 25.3 37.1 25.1 37.1C25 37.1 24.9 37.1 24.8 37.1C24.5 37.1 24.2 37.1 24 37.1C23.9 37.1 23.8 37.1 23.7 37.1C23.4 37.1 23.1 37.1 22.9 37.1C22.8 37.1 22.7 37.1 22.6 37.1C22.3 37.1 22 37.1 21.8 37.1C21.7 37.1 21.6 37.1 21.5 37.1C21.2 37.1 20.9 37.1 20.7 37.1C20.6 37.1 20.5 37.1 20.4 37.1C20.1 37.1 19.8 37.1 19.6 37.1C19.5 37.1 19.4 37.1 19.3 37.1C19 37.1 18.7 37.1 18.5 37.1C18.4 37.1 18.3 37.1 18.2 37.1C17.9 37.1 17.6 37.1 17.4 37.1C17.3 37.1 17.2 37.1 17.1 37.1C16.8 37.1 16.5 37.1 16.3 37.1C16.2 37.1 16.1 37.1 16 37.1C15.7 37.1 15.4 37.1 15.2 37.1C15.1 37.1 15 37.1 14.9 37.1C14.6 37.1 14.3 37.1 14.1 37.1C14 37.1 13.9 37.1 13.8 37.1C13.5 37.1 13.2 37.1 13 37.1C12.9 37.1 12.8 37.1 12.7 37.1C12.4 37.1 12.1 37.1 11.9 37.1C11.8 37.1 11.7 37.1 11.6 37.1C11.4 37.1 11.3 37 11.4 36.9C11.4 36.8 11.4 36.8 11.4 36.7C11.4 36.6 11.4 36.5 11.4 36.4C11.4 36.1 11.4 35.8 11.4 35.6C11.4 35.5 11.4 35.4 11.4 35.3C11.4 35 11.4 34.7 11.4 34.5C11.4 34.4 11.4 34.3 11.4 34.2C11.4 33.9 11.4 33.6 11.4 33.4C11.4 33.3 11.4 33.2 11.4 33.1C11.4 32.8 11.4 32.5 11.4 32.3C11.4 32.2 11.4 32.1 11.4 32C11.4 31.7 11.4 31.4 11.4 31.2C11.4 31.1 11.4 31 11.4 30.9C11.4 30.6 11.4 30.3 11.4 30.1C11.4 30 11.4 29.9 11.4 29.8C11.4 29.5 11.4 29.2 11.4 29C11.4 28.9 11.4 28.8 11.4 28.7C11.4 28.4 11.5 28.1 11.5 27.7C11.5 27.6 11.6 27.5 11.6 27.4C11.7 27.1 11.7 26.7 11.8 26.4C11.8 26.3 11.9 26.2 11.9 26.1C12 25.8 12 25.4 12.1 25.1C12.2 25 12.2 24.9 12.2 24.8C12.3 24.5 12.3 24.1 12.4 23.8C12.5 23.7 12.5 23.6 12.5 23.5C12.6 23.2 12.6 22.8 12.7 22.5C12.8 22.4 12.8 22.3 12.8 22.2C12.9 21.9 12.9 21.5 13 21.2C13.1 21.1 13.1 21 13.1 20.9C13.2 20.6 13.2 20.2 13.3 19.9C13.4 19.8 13.4 19.7 13.4 19.6C13.5 19.3 13.5 18.9 13.6 18.6C13.7 18.5 13.7 18.4 13.7 18.3C13.8 18 13.8 17.6 13.9 17.3C14 17.2 13.9 17.1 14 17C14.1 16.7 14.1 16.3 14.2 16C14.2 15.9 14.2 15.7 14.3 15.6C14.4 15.3 14.4 15 14.5 14.6C14.5 14.5 14.5 14.3 14.6 14.2C14.7 13.9 14.7 13.6 14.8 13.2C14.8 13.1 14.8 12.9 14.9 12.8C15 12.5 15 12.2 15.1 11.8C15.1 11.7 15.1 11.5 15.2 11.4C15.2 11.2 15.3 11 15.3 10.7C15.3 10.6 15.4 10.5 15.5 10.5C15.7 10.5 15.9 10.5 16 10.5C16.1 10.5 16.2 10.5 16.3 10.5C16.6 10.5 16.9 10.5 17.1 10.5C17.2 10.5 17.3 10.5 17.4 10.5C17.7 10.5 18 10.5 18.2 10.5C18.3 10.5 18.4 10.5 18.5 10.5C18.8 10.5 19.1 10.5 19.3 10.5C19.4 10.5 19.5 10.5 19.6 10.5C19.9 10.5 20.2 10.5 20.4 10.5C20.5 10.5 20.6 10.5 20.7 10.5C21 10.5 21.3 10.5 21.5 10.5C21.6 10.5 21.7 10.5 21.8 10.5C22.1 10.5 22.4 10.5 22.6 10.5C22.7 10.5 22.8 10.5 22.9 10.5C23.2 10.5 23.5 10.5 23.7 10.5C23.8 10.5 23.9 10.5 24 10.5C24.3 10.5 24.6 10.5 24.8 10.5C24.9 10.5 25 10.5 25.1 10.5C25.4 10.5 25.7 10.5 25.9 10.5C26 10.5 26.1 10.5 26.2 10.5C26.5 10.5 26.8 10.5 27 10.5C27.1 10.5 27.2 10.5 27.3 10.5C27.6 10.5 27.9 10.5 28.1 10.5C28.2 10.5 28.3 10.5 28.4 10.5C28.7 10.5 29 10.5 29.2 10.5C29.3 10.5 29.4 10.5 29.5 10.5C29.8 10.5 30.1 10.5 30.3 10.5C30.4 10.5 30.5 10.5 30.6 10.5C30.9 10.5 31.2 10.5 31.4 10.5C31.5 10.5 31.6 10.5 31.7 10.5C32 10.5 32.3 10.5 32.5 10.5C32.6 10.5 32.7 10.5 32.8 10.5C33.1 10.5 33.4 10.5 33.6 10.5C33.7 10.5 33.8 10.5 33.9 10.5C34.2 10.5 34.5 10.5 34.7 10.5C34.8 10.5 34.9 10.5 35 10.5C35.3 10.5 35.5 10.5 35.8 10.5C35.8 10.6 35.8 10.6 35.8 10.7C35.8 10.9 35.9 11.1 35.9 11.4C35.9 11.5 35.9 11.6 36 11.7C36 11.9 36.1 12.1 36.1 12.4C36.1 12.5 36.1 12.6 36.2 12.7C36.2 12.9 36.3 13.2 36.3 13.4C36.3 13.5 36.3 13.6 36.3 13.6C36.3 13.8 36.4 14.1 36.4 14.3C36.4 14.4 36.4 14.5 36.4 14.5C36.4 14.7 36.5 15 36.5 15.2C36.5 15.3 36.5 15.4 36.6 15.5C36.6 15.7 36.6 16 36.7 16.2C36.7 16.3 36.7 16.4 36.7 16.5C36.7 16.7 36.7 17 36.8 17.2C36.8 17.3 36.8 17.4 36.8 17.5C36.8 17.7 36.9 18 36.9 18.2C36.9 18.3 36.9 18.4 36.9 18.4C36.9 18.6 37 18.9 37 19.1C37 19.2 37 19.3 37 19.4C37 19.6 37.1 19.8 37.1 20.1C37.1 20.2 37.1 20.3 37.2 20.4C37.2 20.6 37.3 20.9 37.3 21.1C37.3 21.2 37.3 21.3 37.3 21.3C37.3 21.5 37.4 21.8 37.4 22C37.4 22.1 37.4 22.2 37.4 22.2C37.4 22.4 37.5 22.7 37.5 22.9C37.5 23 37.5 23.1 37.5 23.1C37.5 23.3 37.6 23.6 37.6 23.8C37.6 23.9 37.6 24 37.6 24.1C37.6 24.3 37.6 24.6 37.7 24.8C37.7 24.9 37.7 25 37.7 25.1C37.7 25.3 37.8 25.6 37.8 25.8C37.8 25.9 37.8 26 37.8 26C37.8 26.2 37.9 26.5 37.9 26.7C37.9 26.8 37.9 26.9 37.9 27C37.9 27.2 38 27.4 38 27.7C38 27.8 38 27.9 38.1 28C38.1 28.2 38.2 28.5 38.2 28.7C38.2 28.8 38.2 28.9 38.2 29C38.2 29.3 38.2 29.6 38.2 29.8C38.2 29.9 38.2 30 38.2 30.1C38.2 30.4 38.2 30.7 38.2 30.9C38.2 31 38.2 31.1 38.2 31.2C38.2 31.5 38.2 31.8 38.2 32C38.2 32.1 38.2 32.2 38.2 32.3C38.2 32.6 38.2 32.9 38.2 33.1C38.2 33.2 38.2 33.3 38.2 33.4C38.2 33.7 38.2 34 38.2 34.2C38.2 34.3 38.2 34.4 38.2 34.5C38.2 34.8 38.2 35.1 38.2 35.3C38.2 35.4 38.2 35.5 38.2 35.6C38.2 35.9 38.2 36.2 38.2 36.4C37.9 36.2 37.9 36.3 37.9 36.4ZM35.3 27.6C35.3 27.4 35.2 27.2 35.2 26.9C35.2 26.8 35.2 26.7 35.2 26.6C35.2 26.4 35.2 26.1 35.1 25.9C35.1 25.8 35.1 25.7 35.1 25.6C35.1 25.4 35 25.1 35 24.9C35 24.8 35 24.7 35 24.7C35 24.5 35 24.2 34.9 24C34.9 23.9 34.9 23.8 34.9 23.7C34.9 23.5 34.8 23.2 34.8 23C34.8 22.9 34.8 22.8 34.8 22.8C34.8 22.6 34.8 22.3 34.7 22.1C34.7 22 34.7 21.9 34.7 21.8C34.7 21.6 34.6 21.3 34.6 21.1C34.6 21 34.6 20.9 34.6 20.8C34.6 20.6 34.5 20.3 34.5 20.1C34.5 20 34.5 19.9 34.5 19.8C34.5 19.6 34.4 19.3 34.4 19.1C34.4 19 34.4 18.9 34.4 18.8C34.4 18.6 34.3 18.3 34.3 18.1C34.3 18 34.3 17.9 34.3 17.8C34.2 17.2 34.1 16.7 34.1 16.1C34.1 16 34.1 15.9 34.1 15.8C34.1 15.6 34.1 15.3 34 15.1C34 15 34 14.9 34 14.8C34 14.6 33.9 14.4 33.9 14.1C33.9 14 33.9 13.9 33.9 13.8C33.9 13.6 33.9 13.3 33.8 13.1C33.8 13 33.8 12.9 33.8 12.8C33.8 12.6 33.7 12.4 33.7 12.1C33.7 12 33.7 11.9 33.7 11.8C33.7 11.6 33.7 11.5 33.5 11.6C33.3 11.6 33.1 11.6 32.9 11.6C32.8 11.6 32.7 11.6 32.6 11.6C32.3 11.6 32 11.6 31.8 11.6C31.7 11.6 31.6 11.6 31.5 11.6C31.2 11.6 30.9 11.6 30.7 11.6C30.6 11.6 30.5 11.6 30.4 11.6C30.1 11.6 29.8 11.6 29.6 11.6C29.5 11.6 29.4 11.6 29.3 11.6C29 11.6 28.7 11.6 28.5 11.6C28.4 11.6 28.3 11.6 28.2 11.6C27.9 11.6 27.6 11.6 27.4 11.6C27.3 11.6 27.2 11.6 27.1 11.6C26.8 11.6 26.5 11.6 26.3 11.6C26.2 11.6 26.1 11.6 26 11.6C25.7 11.6 25.4 11.6 25.2 11.6C25.1 11.6 25 11.6 24.9 11.6C24.6 11.6 24.3 11.6 24.1 11.6C24 11.6 23.9 11.6 23.8 11.6C23.5 11.6 23.2 11.6 23 11.6C22.9 11.6 22.8 11.6 22.7 11.6C22.4 11.6 22.1 11.6 21.9 11.6C21.8 11.6 21.7 11.6 21.6 11.6C21.3 11.6 21 11.6 20.8 11.6C20.7 11.6 20.6 11.6 20.5 11.6C20.2 11.6 19.9 11.6 19.7 11.6C19.6 11.6 19.5 11.6 19.4 11.6C19.1 11.6 18.8 11.6 18.6 11.6C18.5 11.6 18.4 11.6 18.3 11.6C18 11.6 17.7 11.6 17.5 11.6C17.3 11.6 17.1 11.6 16.9 11.6C16.8 11.6 16.7 11.6 16.7 11.7C16.7 12 16.6 12.2 16.6 12.5C16.6 12.8 16.5 13.1 16.5 13.5C16.5 13.6 16.4 13.7 16.5 13.8C16.4 14.1 16.4 14.4 16.4 14.8C16.3 14.9 16.4 15 16.4 15.1C16.3 15.4 16.3 15.7 16.2 16.1C16.2 16.2 16.2 16.4 16.1 16.5C16.1 16.8 16 17.1 16 17.5C16 17.6 15.9 17.7 15.9 17.8C15.8 18.1 15.8 18.4 15.8 18.8C15.7 18.9 15.7 19 15.8 19.1C15.7 19.4 15.7 19.7 15.7 20.1C15.7 20.2 15.7 20.4 15.6 20.5C15.6 20.8 15.5 21.1 15.5 21.5C15.5 21.6 15.5 21.7 15.4 21.8C15.3 22.1 15.3 22.4 15.3 22.8C15.2 22.9 15.2 23 15.3 23.1C15.2 23.4 15.2 23.7 15.2 24.1C15.1 24.2 15.2 24.3 15.2 24.4C15.1 24.7 15.1 25 15 25.4C15 25.5 15 25.6 14.9 25.8C14.9 26.1 14.8 26.4 14.8 26.8C14.8 26.9 14.7 27 14.7 27.1C14.6 27.4 14.6 27.7 14.6 28.1C14.5 28.3 14.5 28.4 14.8 28.4C15.1 28.4 15.4 28.4 15.6 28.4C15.7 28.4 15.8 28.4 15.9 28.4C16.2 28.4 16.5 28.4 16.7 28.4C16.8 28.4 16.9 28.4 17 28.4C17.3 28.4 17.6 28.4 17.8 28.4C17.9 28.4 18 28.4 18.1 28.4C18.4 28.4 18.7 28.4 18.9 28.4C19 28.4 19.1 28.4 19.2 28.4C19.5 28.4 19.8 28.4 20 28.4C20.1 28.4 20.2 28.4 20.3 28.4C20.5 28.4 20.6 28.5 20.7 28.7C20.7 28.8 20.7 28.9 20.8 28.9C20.9 29.1 20.9 29.3 21 29.5C21 29.6 21 29.7 21.1 29.7C21.1 29.9 21.2 30.1 21.3 30.3C21.3 30.4 21.3 30.5 21.4 30.5C21.5 30.7 21.6 30.9 21.6 31.1C21.7 31.2 21.6 31.4 21.8 31.3C22.1 31.3 22.3 31.3 22.6 31.3C22.7 31.3 22.8 31.3 22.9 31.3C23.2 31.3 23.4 31.3 23.7 31.3C23.8 31.3 23.9 31.3 24 31.3C24.3 31.3 24.5 31.3 24.8 31.3C24.9 31.3 25 31.3 25.1 31.3C25.4 31.3 25.6 31.3 25.9 31.3C26 31.3 26.1 31.3 26.2 31.3C26.5 31.3 26.7 31.3 27 31.3C27.1 31.3 27.2 31.3 27.3 31.3C27.6 31.3 27.8 31.3 28.1 31.3C28.3 31.3 28.5 31.3 28.7 31.3C28.8 31.3 28.8 31.3 28.9 31.2C29 30.9 29.2 30.6 29.3 30.2C29.6 29.7 29.8 29.2 30 28.7C30.1 28.6 30.1 28.4 30.3 28.4C30.6 28.4 30.9 28.4 31.1 28.4C31.2 28.4 31.3 28.4 31.4 28.4C31.7 28.4 32 28.4 32.2 28.4C32.3 28.4 32.4 28.4 32.5 28.4C32.8 28.4 33.1 28.4 33.3 28.4C33.4 28.4 33.5 28.4 33.6 28.4C33.9 28.4 34.2 28.4 34.4 28.4C34.5 28.4 34.6 28.4 34.7 28.4C35 28.4 35.3 28.4 35.5 28.4C35.5 28.4 35.5 28.4 35.6 28.4C35.4 28.2 35.4 28.2 35.3 27.6Z" fill="#11198B"/>
<path d="M33.1 24.1C33.1 24.2 33.1 24.3 33.2 24.4C33.2 24.8 33.2 24.8 32.8 24.8H32.7C32.6 24.8 32.5 24.8 32.4 24.8C32.1 24.8 31.8 24.8 31.6 24.8C31.5 24.8 31.4 24.8 31.3 24.8C31 24.8 30.7 24.8 30.5 24.8C30.4 24.8 30.3 24.8 30.2 24.8C29.9 24.8 29.6 24.8 29.4 24.8C29.3 24.8 29.2 24.8 29.1 24.8C28.8 24.8 28.5 24.8 28.3 24.8C28.2 24.8 28.1 24.8 28 24.8C27.7 24.8 27.4 24.8 27.2 24.8C27.1 24.8 27 24.8 26.9 24.8C26.6 24.8 26.3 24.8 26.1 24.8C26 24.8 25.9 24.8 25.8 24.8C25.5 24.8 25.2 24.8 25 24.8C24.9 24.8 24.8 24.8 24.7 24.8C24.4 24.8 24.1 24.8 23.9 24.8C23.8 24.8 23.7 24.8 23.6 24.8C23.3 24.8 23 24.8 22.8 24.8C22.7 24.8 22.6 24.8 22.5 24.8C22.2 24.8 21.9 24.8 21.7 24.8C21.6 24.8 21.5 24.8 21.4 24.8C21.1 24.8 20.8 24.8 20.6 24.8C20.5 24.8 20.4 24.8 20.3 24.8C20 24.8 19.7 24.8 19.5 24.8C19.4 24.8 19.3 24.8 19.2 24.8C18.9 24.8 18.6 24.8 18.4 24.8C18.3 24.8 18.2 24.8 18.1 24.8C17.8 24.8 17.5 24.8 17.3 24.8C17.2 24.8 17.1 24.8 17 24.8C16.7 24.8 16.4 24.8 16.2 24.8C16.1 24.8 16.1 24.8 16 24.8C16.1 24.5 16.1 24.2 16.2 23.9C16.3 23.8 16.3 23.6 16.3 23.5C16.3 23.4 16.4 23.2 16.5 23.3C16.6 23.3 16.7 23.3 16.8 23.3C17.1 23.3 17.4 23.3 17.6 23.3C17.7 23.3 17.8 23.3 17.9 23.3C18.2 23.3 18.5 23.3 18.7 23.3C18.8 23.3 18.9 23.3 19 23.3C19.3 23.3 19.6 23.3 19.8 23.3C19.9 23.3 20 23.3 20.1 23.3C20.4 23.3 20.7 23.3 20.9 23.3C21 23.3 21.1 23.3 21.2 23.3C21.5 23.3 21.8 23.3 22 23.3C22.1 23.3 22.2 23.3 22.3 23.3C22.6 23.3 22.9 23.3 23.1 23.3C23.2 23.3 23.3 23.3 23.4 23.3C23.7 23.3 24 23.3 24.2 23.3C24.3 23.3 24.4 23.3 24.5 23.3C24.8 23.3 25.1 23.3 25.3 23.3C25.4 23.3 25.5 23.3 25.6 23.3C25.9 23.3 26.2 23.3 26.4 23.3C26.5 23.3 26.6 23.3 26.7 23.3C27 23.3 27.3 23.3 27.5 23.3C27.6 23.3 27.7 23.3 27.8 23.3C28.1 23.3 28.4 23.3 28.6 23.3C28.7 23.3 28.8 23.3 28.9 23.3C29.2 23.3 29.5 23.3 29.7 23.3C29.8 23.3 29.9 23.3 30 23.3C30.3 23.3 30.6 23.3 30.8 23.3C30.9 23.3 31 23.3 31.1 23.3C31.4 23.3 31.7 23.3 31.9 23.3C32 23.3 32.1 23.3 32.2 23.3C32.4 23.3 32.6 23.3 32.9 23.3C32.9 23.4 32.9 23.4 33 23.5C33 23.7 33 23.9 33.1 24.1Z" fill="#11198B"/>
<path d="M21.5 27.2C21.5 27.1 21.4 27 21.4 27C21.3 26.8 21.3 26.7 21.2 26.5C21.5 26.5 21.7 26.5 22 26.5C22.1 26.5 22.2 26.5 22.3 26.5C22.6 26.5 22.8 26.5 23.1 26.5C23.2 26.5 23.3 26.5 23.4 26.5C23.7 26.5 23.9 26.5 24.2 26.5C24.3 26.5 24.4 26.5 24.5 26.5C24.8 26.5 25 26.5 25.3 26.5C25.4 26.5 25.5 26.5 25.6 26.5C25.9 26.5 26.1 26.5 26.4 26.5C26.5 26.5 26.6 26.5 26.7 26.5C27 26.5 27.2 26.5 27.5 26.5C27.6 26.5 27.7 26.5 27.8 26.5C27.6 26.9 27.4 27.3 27.2 27.7C27.1 27.9 27 28.1 26.9 28.3C26.8 28.4 26.8 28.5 26.7 28.5C26.6 28.5 26.5 28.5 26.4 28.5C26.1 28.5 25.8 28.5 25.6 28.5C25.5 28.5 25.4 28.5 25.3 28.5C25 28.5 24.7 28.5 24.5 28.5C24.4 28.5 24.3 28.5 24.2 28.5C23.9 28.5 23.6 28.5 23.4 28.5C23.3 28.5 23.2 28.5 23.1 28.5C22.8 28.5 22.5 28.5 22.3 28.5H22.2C22.1 28.3 22 28.1 21.9 27.9C21.9 27.8 21.8 27.7 21.8 27.7C21.7 27.5 21.6 27.3 21.5 27.2Z" fill="11198B"/>
<path d="M32.7 21.1C32.7 21.2 32.7 21.3 32.7 21.4C32.7 21.6 32.7 21.7 32.5 21.7C32.4 21.7 32.3 21.7 32.2 21.7C31.9 21.7 31.7 21.7 31.4 21.7C31.3 21.7 31.2 21.7 31.1 21.7C30.8 21.7 30.6 21.7 30.3 21.7C30.2 21.7 30.1 21.7 30 21.7C29.7 21.7 29.5 21.7 29.2 21.7C29.1 21.7 29 21.7 28.9 21.7C28.6 21.7 28.4 21.7 28.1 21.7C28 21.7 27.9 21.7 27.8 21.7C27.5 21.7 27.3 21.7 27 21.7C26.9 21.7 26.8 21.7 26.7 21.7C26.4 21.7 26.2 21.7 25.9 21.7C25.8 21.7 25.7 21.7 25.6 21.7C25.3 21.7 25.1 21.7 24.8 21.7C24.7 21.7 24.6 21.7 24.5 21.7C24.2 21.7 24 21.7 23.7 21.7C23.6 21.7 23.5 21.7 23.4 21.7C23.1 21.7 22.9 21.7 22.6 21.7C22.5 21.7 22.4 21.7 22.3 21.7C22 21.7 21.8 21.7 21.5 21.7C21.4 21.7 21.3 21.7 21.2 21.7C20.9 21.7 20.7 21.7 20.4 21.7C20.3 21.7 20.2 21.7 20.1 21.7C19.8 21.7 19.6 21.7 19.3 21.7C19.2 21.7 19.1 21.7 19 21.7C18.7 21.7 18.5 21.7 18.2 21.7C18.1 21.7 18 21.7 17.9 21.7C17.6 21.7 17.4 21.7 17.1 21.7C17 21.7 16.9 21.7 16.8 21.7C16.7 21.7 16.6 21.7 16.7 21.5C16.7 21.4 16.7 21.2 16.7 21.1C16.7 21 16.8 20.9 16.7 20.8C16.7 20.6 16.8 20.3 16.8 20.1V20C17.1 20 17.3 20 17.6 20C17.7 20 17.8 20 17.9 20C18.2 20 18.4 20 18.7 20C18.8 20 18.9 20 19 20C19.3 20 19.5 20 19.8 20C19.9 20 20 20 20.1 20C20.4 20 20.6 20 20.9 20C21 20 21.1 20 21.2 20C21.5 20 21.7 20 22 20C22.1 20 22.2 20 22.3 20C22.6 20 22.8 20 23.1 20C23.2 20 23.3 20 23.4 20C23.7 20 23.9 20 24.2 20C24.3 20 24.4 20 24.5 20C24.8 20 25 20 25.3 20C25.4 20 25.5 20 25.6 20C25.9 20 26.1 20 26.4 20C26.5 20 26.6 20 26.7 20C27 20 27.2 20 27.5 20C27.6 20 27.7 20 27.8 20C28.1 20 28.3 20 28.6 20C28.7 20 28.8 20 28.9 20C29.2 20 29.4 20 29.7 20C29.8 20 29.9 20 30 20C30.3 20 30.5 20 30.8 20C30.9 20 31 20 31.1 20C31.4 20 31.6 20 31.9 20C32 20 32.1 20 32.2 20C32.3 20 32.5 20 32.6 20C32.6 20.2 32.6 20.3 32.7 20.5C32.6 20.7 32.6 20.9 32.7 21.1Z" fill="#11198B"/>
<path d="M32.2 17.1C32.2 17.2 32.2 17.3 32.2 17.4C32.2 17.6 32.2 17.9 32.3 18.1V18.2C32.3 18.3 32.3 18.4 32.2 18.4C32.1 18.4 32 18.4 31.9 18.4C31.6 18.4 31.3 18.4 31.1 18.4C31 18.4 30.9 18.4 30.8 18.4C30.5 18.4 30.2 18.4 30 18.4C29.9 18.4 29.8 18.4 29.7 18.4C29.4 18.4 29.1 18.4 28.9 18.4C28.8 18.4 28.7 18.4 28.6 18.4C28.3 18.4 28 18.4 27.8 18.4C27.7 18.4 27.6 18.4 27.5 18.4C27.2 18.4 26.9 18.4 26.7 18.4C26.6 18.4 26.5 18.4 26.4 18.4C26.1 18.4 25.8 18.4 25.6 18.4C25.5 18.4 25.4 18.4 25.3 18.4C25 18.4 24.7 18.4 24.5 18.4C24.4 18.4 24.3 18.4 24.2 18.4C23.9 18.4 23.6 18.4 23.4 18.4C23.3 18.4 23.2 18.4 23.1 18.4C22.8 18.4 22.5 18.4 22.3 18.4C22.2 18.4 22.1 18.4 22 18.4C21.7 18.4 21.4 18.4 21.2 18.4C21.1 18.4 21 18.4 20.9 18.4C20.6 18.4 20.3 18.4 20.1 18.4C20 18.4 19.9 18.4 19.8 18.4C19.5 18.4 19.2 18.4 19 18.4C18.9 18.4 18.8 18.4 18.7 18.4C18.4 18.4 18.1 18.4 17.9 18.4C17.8 18.4 17.7 18.4 17.6 18.4C17.3 18.4 17.1 18.4 16.8 18.4C16.8 18.3 16.8 18.1 16.8 18C16.8 17.8 16.8 17.6 16.9 17.3C16.9 17.2 16.9 17.1 16.9 17C16.9 16.8 17 16.6 17.2 16.7C17.3 16.7 17.4 16.7 17.5 16.7C17.8 16.7 18.1 16.7 18.3 16.7C18.4 16.7 18.5 16.7 18.6 16.7C18.9 16.7 19.2 16.7 19.4 16.7C19.5 16.7 19.6 16.7 19.7 16.7C20 16.7 20.3 16.7 20.5 16.7C20.6 16.7 20.7 16.7 20.8 16.7C21.1 16.7 21.4 16.7 21.6 16.7C21.7 16.7 21.8 16.7 21.9 16.7C22.2 16.7 22.5 16.7 22.7 16.7C22.8 16.7 22.9 16.7 23 16.7C23.3 16.7 23.6 16.7 23.8 16.7C23.9 16.7 24 16.7 24.1 16.7C24.4 16.7 24.7 16.7 24.9 16.7C25 16.7 25.1 16.7 25.2 16.7C25.5 16.7 25.8 16.7 26 16.7C26.1 16.7 26.2 16.7 26.3 16.7C26.6 16.7 26.9 16.7 27.1 16.7C27.2 16.7 27.3 16.7 27.4 16.7C27.7 16.7 28 16.7 28.2 16.7C28.3 16.7 28.4 16.7 28.5 16.7C28.8 16.7 29.1 16.7 29.3 16.7C29.4 16.7 29.5 16.7 29.6 16.7C29.9 16.7 30.2 16.7 30.4 16.7C30.5 16.7 30.6 16.7 30.7 16.7C31 16.7 31.3 16.7 31.5 16.7C31.6 16.7 31.7 16.7 31.8 16.7C32.3 16.7 32.2 17 32.2 17.1Z" fill="#11198B"/>
<path d="M31.5 13.5C31.5 13.5 31.6 13.5 31.6 13.6C31.6 13.8 31.6 14.1 31.7 14.3C31.7 14.4 31.7 14.5 31.7 14.6C31.7 14.8 31.8 15.1 31.7 15.2C31.6 15.3 31.3 15.2 31.1 15.2H31C30.9 15.2 30.8 15.2 30.7 15.2C30.4 15.2 30.2 15.2 29.9 15.2C29.8 15.2 29.7 15.2 29.6 15.2C29.3 15.2 29.1 15.2 28.8 15.2C28.7 15.2 28.6 15.2 28.5 15.2C28.2 15.2 28 15.2 27.7 15.2C27.6 15.2 27.5 15.2 27.4 15.2C27.1 15.2 26.9 15.2 26.6 15.2C26.5 15.2 26.4 15.2 26.3 15.2C26 15.2 25.8 15.2 25.5 15.2C25.4 15.2 25.3 15.2 25.2 15.2C24.9 15.2 24.7 15.2 24.4 15.2C24.3 15.2 24.2 15.2 24.1 15.2C23.8 15.2 23.6 15.2 23.3 15.2C23.2 15.2 23.1 15.2 23 15.2C22.7 15.2 22.5 15.2 22.2 15.2C22.1 15.2 22 15.2 21.9 15.2C21.6 15.2 21.4 15.2 21.1 15.2C21 15.2 20.9 15.2 20.8 15.2C20.5 15.2 20.3 15.2 20 15.2C19.9 15.2 19.8 15.2 19.7 15.2C19.4 15.2 19.2 15.2 18.9 15.2C18.8 15.2 18.7 15.2 18.6 15.2C18.3 15.2 18.1 15.2 17.8 15.2C17.7 15.2 17.6 15.2 17.5 15.2L17.4 15.1C17.5 14.9 17.4 14.8 17.4 14.6C17.5 14.5 17.5 14.4 17.4 14.3C17.5 14 17.4 13.8 17.5 13.5C17.8 13.5 18 13.5 18.3 13.5C18.4 13.5 18.5 13.5 18.6 13.5C18.9 13.5 19.2 13.5 19.4 13.5C19.5 13.5 19.6 13.5 19.7 13.5C20 13.5 20.3 13.5 20.5 13.5C20.6 13.5 20.7 13.5 20.8 13.5C21.1 13.5 21.4 13.5 21.6 13.5C21.7 13.5 21.8 13.5 21.9 13.5C22.2 13.5 22.5 13.5 22.7 13.5C22.8 13.5 22.9 13.5 23 13.5C23.3 13.5 23.6 13.5 23.8 13.5C23.9 13.5 24 13.5 24.1 13.5C24.4 13.5 24.7 13.5 24.9 13.5C25 13.5 25.1 13.5 25.2 13.5C25.5 13.5 25.8 13.5 26 13.5C26.1 13.5 26.2 13.5 26.3 13.5C26.6 13.5 26.9 13.5 27.1 13.5C27.2 13.5 27.3 13.5 27.4 13.5C27.7 13.5 28 13.5 28.2 13.5C28.3 13.5 28.4 13.5 28.5 13.5C28.8 13.5 29.1 13.5 29.3 13.5C29.4 13.5 29.5 13.5 29.6 13.5C29.9 13.5 30.2 13.5 30.4 13.5C30.5 13.5 30.6 13.5 30.7 13.5C31 13.5 31.3 13.5 31.5 13.5Z" fill="#11198B"/>
</svg>
