<svg width="49" height="49" viewBox="0 0 49 49" fill="none" xmlns="http://www.w3.org/2000/svg">
<path d="M24 16.7C23.5 16.6 23.1 17 23 17.5C22.8 18.2 23.1 18.8 23.6 18.9C24.1 19.1 24.6 18.8 24.8 18.3C24.9 18.1 24.9 18 24.9 17.8C24.8 17.2 24.5 16.8 24 16.7ZM26.4 21.5C25.4 19.7 22.5 19.7 21.4 21.5C21.3 21.6 21.3 21.7 21.5 21.7C22.2 22.2 23 22.4 23.9 22.5C24.8 22.5 25.6 22.2 26.3 21.7C26.4 21.7 26.4 21.7 26.4 21.5ZM23.7 14C22.2 14.1 20.9 14.8 20.2 16.2C19.4 17.7 19.5 19.2 20.4 20.6C20.4 20.7 20.5 20.8 20.6 20.7C21 20.2 21.5 19.7 22.1 19.4C22.2 19.4 22.2 19.3 22.2 19.2C21.9 18.7 21.8 18.1 21.8 17.6C21.9 16 23.6 15 25 15.8C26.1 16.4 26.5 18 25.8 19.1C25.7 19.2 25.6 19.3 25.8 19.4C26.4 19.7 26.9 20.1 27.2 20.6C27.3 20.8 27.4 20.7 27.4 20.6C27.8 20 28 19.4 28.1 18.7C28.4 16.2 26.4 14 23.7 14ZM23.7 14C22.2 14.1 20.9 14.8 20.2 16.2C19.4 17.7 19.5 19.2 20.4 20.6C20.4 20.7 20.5 20.8 20.6 20.7C21 20.2 21.5 19.7 22.1 19.4C22.2 19.4 22.2 19.3 22.2 19.2C21.9 18.7 21.8 18.1 21.8 17.6C21.9 16 23.6 15 25 15.8C26.1 16.4 26.5 18 25.8 19.1C25.7 19.2 25.6 19.3 25.8 19.4C26.4 19.7 26.9 20.1 27.2 20.6C27.3 20.8 27.4 20.7 27.4 20.6C27.8 20 28 19.4 28.1 18.7C28.4 16.2 26.4 14 23.7 14ZM21.4 21.5C21.3 21.6 21.3 21.7 21.5 21.7C22.2 22.2 23 22.4 23.9 22.5C24.8 22.5 25.6 22.2 26.3 21.7C26.4 21.6 26.5 21.6 26.4 21.5C25.3 19.7 22.4 19.7 21.4 21.5ZM24.8 18.3C24.9 18.1 24.9 18 24.9 17.8C24.9 17.1 24.6 16.7 24.1 16.7C23.6 16.6 23.2 17 23.1 17.5C22.9 18.2 23.2 18.8 23.7 18.9C24.1 19.1 24.6 18.8 24.8 18.3ZM24.5 0.799988C11.3 0.799988 0.5 11.6 0.5 24.8C0.5 38 11.3 48.8 24.5 48.8C37.8 48.8 48.5 38 48.5 24.8C48.5 11.6 37.7 0.799988 24.5 0.799988ZM36.5 38.4C36.5 39.2 35.9 39.8 35.1 40C35.1 40 35 40 35 40.1H12.6C12.6 40.1 12.6 40 12.5 40C11.5 39.7 11.2 38.9 11.2 38V11.7C11.2 11.6 11.2 11.5 11.2 11.4C11.2 11 11.4 10.6 11.6 10.3C11.9 9.99999 12.2 9.90001 12.6 9.70001H35C35.1 9.80001 35.3 9.79999 35.4 9.79999C36 10.1 36.4 10.6 36.4 11.4C36.4 13.6 36.4 15.7 36.4 17.9C36.4 18.3 36.1 18.5 35.8 18.5C35.4 18.5 35.2 18.2 35.2 17.8V11.7C35.2 11 35 10.9 34.4 10.9H13.2C12.5 10.9 12.4 11.1 12.4 11.7V38C12.4 38.7 12.6 38.8 13.3 38.8H34.4C35.1 38.8 35.3 38.6 35.3 37.9V33.9C35.3 33.4 35.6 33.1 36.1 33.3C36.4 33.4 36.5 33.6 36.5 33.9C36.5 35.4 36.5 36.9 36.5 38.4ZM26.9 33.5H18.8C18.7 33.5 18.6 33.5 18.5 33.5C18.2 33.5 17.9 33.2 17.9 32.9C17.9 32.6 18.1 32.3 18.5 32.3C18.6 32.3 18.6 32.3 18.7 32.3H26.8C27.3 32.3 27.5 32.5 27.5 32.9C27.7 33.2 27.4 33.5 26.9 33.5ZM27.7 36.2C27.7 36.6 27.4 36.8 27 36.8H24C23.6 36.8 23.3 36.6 23.3 36.2C23.3 35.8 23.6 35.6 24 35.6H26.9C27.4 35.6 27.7 35.9 27.7 36.2ZM26.9 30.2H22.8C21.4 30.2 20.1 30.2 18.7 30.2C18.2 30.2 17.9 29.8 18 29.4C18.1 29.1 18.3 29 18.6 29H26.8C27.3 29 27.6 29.2 27.6 29.6C27.7 29.9 27.4 30.1 26.9 30.2ZM27.2 26.8C27.1 26.8 27 26.8 26.9 26.8H18.8C18.7 26.8 18.5 26.8 18.4 26.8C18.2 26.7 18 26.5 18 26.3C18 26 18.1 25.8 18.4 25.7C18.5 25.7 18.6 25.7 18.8 25.7H26.9C27 25.7 27.1 25.7 27.2 25.7C27.5 25.8 27.7 26 27.7 26.3C27.7 26.6 27.5 26.7 27.2 26.8ZM23.9 23.7C20.9 23.7 18.4 21.2 18.4 18.2C18.4 15.2 20.9 12.7 23.9 12.7C26.9 12.7 29.4 15.1 29.4 18.1C29.4 21.1 26.9 23.7 23.9 23.7ZM16.1 30.1C15.8 30.1 15.5 29.8 15.5 29.5C15.5 29.2 15.8 28.9 16.1 28.9C16.4 28.9 16.7 29.2 16.7 29.5C16.7 29.9 16.4 30.2 16.1 30.1ZM16.7 32.9C16.7 33.2 16.4 33.5 16.1 33.5C15.8 33.5 15.5 33.2 15.5 32.9C15.5 32.6 15.8 32.3 16.1 32.3C16.4 32.3 16.7 32.6 16.7 32.9ZM16.1 26.8C15.8 26.8 15.5 26.5 15.5 26.2C15.5 25.9 15.8 25.6 16.1 25.6C16.4 25.6 16.7 25.9 16.7 26.2C16.7 26.5 16.4 26.8 16.1 26.8ZM36 30.1C35.4 31.3 34.7 32.4 34 33.6C33.9 33.8 33.8 33.9 33.6 34.1L30.1 36.7C30.1 36.7 30 36.8 29.9 36.8C29.7 36.9 29.5 37 29.3 36.8C29.1 36.7 29 36.5 29 36.2C29.1 35.5 29.2 34.8 29.2 34.2C29.3 33.4 29.4 32.6 29.5 31.8C29.5 31.6 29.6 31.3 29.7 31.1C32.1 26.9 34.6 22.7 37 18.5C37.5 17.6 38.3 17.1 39.3 17.1C40.4 17.1 41.4 17.9 41.7 19.1C41.7 19.2 41.7 19.2 41.8 19.2V20C40 23.4 37.9 26.7 36 30.1ZM39.2 18.2C38.8 18.2 38.4 18.4 38.1 18.7C37.9 19 37.7 19.4 37.5 19.7C37.4 19.8 37.5 19.9 37.6 19.9C38.3 20.3 38.9 20.7 39.6 21.1C39.7 21.2 39.8 21.1 39.8 21C40 20.7 40.2 20.3 40.4 20C40.8 19.1 40.2 18.2 39.2 18.2ZM37.1 21C36.9 20.9 36.9 20.9 36.8 21.1C34.9 24.4 32.9 27.8 31 31.1C30.9 31.3 30.9 31.3 31.1 31.4C31.7 31.8 32.3 32.1 33 32.5C33 32.5 33.1 32.6 33.2 32.6C33.3 32.6 33.3 32.5 33.4 32.4C35.3 29.1 37.3 25.7 39.2 22.4C39.3 22.2 39.3 22.2 39.1 22.1C38.4 21.7 37.7 21.3 37.1 21ZM30.3 34.9C31 34.4 31.6 33.9 32.3 33.5C31.7 33.2 31.2 32.9 30.6 32.5C30.5 33.3 30.4 34.1 30.3 34.9ZM23.7 14C22.2 14.1 20.9 14.8 20.2 16.2C19.4 17.7 19.5 19.2 20.4 20.6C20.4 20.7 20.5 20.8 20.6 20.7C21 20.2 21.5 19.7 22.1 19.4C22.2 19.4 22.2 19.3 22.2 19.2C21.9 18.7 21.8 18.1 21.8 17.6C21.9 16 23.6 15 25 15.8C26.1 16.4 26.5 18 25.8 19.1C25.7 19.2 25.6 19.3 25.8 19.4C26.4 19.7 26.9 20.1 27.2 20.6C27.3 20.8 27.4 20.7 27.4 20.6C27.8 20 28 19.4 28.1 18.7C28.4 16.2 26.4 14 23.7 14ZM21.4 21.5C21.3 21.6 21.3 21.7 21.5 21.7C22.2 22.2 23 22.4 23.9 22.5C24.8 22.5 25.6 22.2 26.3 21.7C26.4 21.6 26.5 21.6 26.4 21.5C25.3 19.7 22.4 19.7 21.4 21.5ZM24.8 18.3C24.9 18.1 24.9 18 24.9 17.8C24.9 17.1 24.6 16.7 24.1 16.7C23.6 16.6 23.2 17 23.1 17.5C22.9 18.2 23.2 18.8 23.7 18.9C24.1 19.1 24.6 18.8 24.8 18.3Z" fill="#DDCACA"/>
</svg>
