<svg width="68" height="67" viewBox="0 0 68 67" fill="none" xmlns="http://www.w3.org/2000/svg">
<path opacity="0.56" d="M11.6001 57.9C6.20009 53.3 3.1001 47.4 1.7001 40.6C-2.4999 19.1 14.2001 -0.0999888 36.2001 1.10001C51.9001 2.00001 65.3001 15 66.7001 30.7C67.6001 40.7 64.5001 49.3 57.9001 56.7C57.5001 57.2 56.9001 57.5 56.4001 57.8C51.6001 57.8 46.7001 57.8 41.9001 57.7C42.6001 56.5 42.3001 55.7 40.9001 55.6C38.3001 55.4 37.1001 53.7 36.3001 51.7C35.7001 50.2 35.4001 48.7 35.3001 47.1C35.6001 47 35.9001 46.9 36.2001 46.8C50.9001 43.4 56.7001 26.8 47.5001 14.9C47.1001 14.4 46.5001 14 47.2001 13.2C47.6001 12.7 47.2001 12 46.6001 12.3C45.8001 12.7 45.2001 12.6 44.5001 12.3C43.9001 12.1 43.4001 12.8 43.6001 13.2C44.7001 15 42.9001 15.3 42.3001 16.2C40.4001 14.9 38.6001 13.5 36.3001 13C33.9001 12.2 31.4001 12.1 28.9001 12.7C25.7001 13.2 23.2001 14.8 21.1001 17.1C18.1001 20.3 16.7001 24.1 17.1001 28.4C17.0001 29.1 17.1001 29.7 17.4001 30.3C17.6001 33.2 19.3001 35.4 20.9001 37.6C20.3001 38.2 19.5001 39.4 19.2001 39.2C17.1001 38.5 17.2001 39.1 17.2001 41.1C17.2001 42.8 16.8001 43 18.4001 42.1C18.8001 41.9 19.1001 42.3 19.4001 42.5C23.2001 45.7 27.7001 47.1 32.6001 47.2C32.6001 47.6 32.6001 48.1 32.5001 48.5C31.8001 51.9 31.1001 55.2 26.7001 55.6C25.5001 55.7 25.5001 56.7 26.1001 57.6C21.3001 57.8 16.4001 57.8 11.6001 57.9Z" fill="#11198B" stroke="#11198B" stroke-width="0.75" stroke-miterlimit="10"/>
<path d="M41.9001 57.8C46.7001 57.8 51.6001 57.8 56.4001 57.9C52.2001 62.4 46.9001 65 41.0001 66.2C30.7001 68.3 21.4001 66.1 13.1001 59.5C12.6001 59.1 12.1001 58.5 11.7001 58C16.5001 58 21.3001 57.9 26.1001 57.9C31.3001 58 36.6001 58 41.9001 57.8Z" fill="#F7B44D"/>
<path d="M28.9001 12.7C31.4001 12 33.8001 12.1 36.3001 13C36.0001 14 35.7001 15.1 35.1001 16C34.7001 16.5 35.0001 17.5 35.2001 17.4C36.8001 16 38.2001 19.9 39.7001 17.4C41.2001 18.6 41.5001 16.9 42.4001 16.4C42.7001 16.7 43.1001 17 43.4001 17.3C45.5001 20.3 47.3001 23.4 47.1001 27.3C46.5001 27 45.9001 26.8 45.6001 26.2C44.2001 22.8 44.2001 22.8 40.7001 23.7C40.6001 24.9 41.6001 25.3 42.4001 26C40.0001 26.1 37.8001 24.5 35.3001 25.4C35.7001 26.2 36.5001 26.7 37.3001 26.8C38.4001 27 39.0001 27.3 39.2001 28.5C39.3001 29.3 40.0001 29.3 40.7001 29.2C41.1001 29.1 41.5001 28.9 41.6001 29.4C41.7001 29.6 41.7001 29.9 41.6001 30.1C41.3001 30.6 41.0001 30.4 40.6001 30.2C40.3001 30 40.0001 29.7 39.6001 30.1C38.7001 31.1 38.0001 31 37.5001 29.7C36.3001 26.3 33.9001 25.7 31.1001 27.9C29.8001 28.9 29.9001 29.9 31.1001 30.9C32.6001 32.3 32.7001 33 31.2001 34.6C30.4001 35.5 29.5001 36.3 29.0001 37.5C28.8001 38.2 28.0001 38.8 28.8001 39.5C29.5001 40.2 30.3001 40 31.1001 39.6C32.6001 38.9 34.0001 37.9 35.4001 37.4C37.1001 36.9 37.7001 36.2 37.6001 34.6C37.8001 34.6 38.0001 34.6 38.2001 34.6C38.1001 35.9 39.1001 35.9 39.9001 35.9C41.3001 36 40.1001 34.5 40.7001 34.2C42.6001 35.7 41.2001 37.6 41.4001 39.3C38.8001 41.6 35.8001 42.5 32.4001 42.6C28.4001 42.7 25.0001 41.1 21.9001 38.7C21.7001 38.3 21.4001 37.9 21.0001 37.7C19.4001 35.5 17.8001 33.3 17.5001 30.4C19.7001 30.8 21.8001 30.1 23.9001 29.5C25.5001 29 26.5001 28.4 24.9001 26.8C24.7001 26.5 25.0001 26.2 25.0001 25.9C24.9001 24.5 25.1001 22.5 23.6001 22.2C22.3001 21.9 20.8001 22.8 20.4001 24.7C20.1001 26.5 19.0001 27.9 17.2001 28.6C16.8001 24.2 18.2001 20.5 21.2001 17.3C21.6001 18.5 21.9001 19.8 22.8001 20.8C24.0001 19.6 23.0001 19 22.3001 18.2C24.2001 18.8 26.0001 18.3 27.8001 18.2C29.0001 18.1 30.0001 16.5 31.4001 17.8C31.6001 18 31.9001 17.7 32.0001 17.4C32.4001 16.2 32.1001 14.8 31.5001 14C31.0001 13.4 30.0001 14.4 29.5001 15.2C29.5001 15.3 29.3001 15.3 29.0001 15.3C28.9001 14.2 28.9001 13.5 28.9001 12.7ZM33.7001 40.5C34.2001 40.4 34.7001 40.2 34.9001 39.6C35.0001 39 34.5001 39.1 34.2001 39.1C33.6001 39.1 33.1001 39.3 32.9001 40C32.8001 40.5 33.2001 40.6 33.7001 40.5Z" fill="#FAFBFA"/>
<path d="M20.9001 37.6C21.3001 37.8 21.6001 38.1 21.8001 38.6C19.6001 40.8 19.6001 40.8 22.2001 42.5C29.3001 47.2 38.8001 46.2 44.9001 40.2C50.9001 34.2 51.8001 24.7 47.1001 17.5C45.4001 14.9 45.4001 14.9 43.3001 17.3C43.0001 17 42.6001 16.7 42.3001 16.4V16.2C42.9001 15.3 44.7001 15 43.6001 13.2C43.3001 12.8 43.9001 12.1 44.5001 12.3C45.2001 12.5 45.8001 12.7 46.6001 12.3C47.2001 12 47.6001 12.7 47.2001 13.2C46.5001 14 47.1001 14.4 47.5001 14.9C56.7001 26.8 50.9001 43.4 36.2001 46.8C35.9001 46.9 35.6001 47 35.3001 47.1C34.4001 47.2 33.5001 47.2 32.5001 47.3C27.6001 47.2 23.1001 45.8 19.3001 42.6C19.0001 42.4 18.8001 42 18.3001 42.2C16.7001 43.1 17.0001 42.9 17.1001 41.2C17.2001 39.2 17.0001 38.7 19.1001 39.3C19.5001 39.4 20.3001 38.2 20.9001 37.6Z" fill="#334B5E"/>
<path d="M32.5001 47.3C33.4001 47.2 34.3001 47.2 35.3001 47.1C35.4001 48.7 35.7001 50.3 36.3001 51.7C37.2001 53.8 38.3001 55.5 40.9001 55.6C42.3001 55.7 42.6001 56.5 41.9001 57.7C36.6001 57.9 31.4001 57.9 26.1001 57.7C25.6001 56.8 25.5001 55.8 26.7001 55.7C31.1001 55.2 31.8001 51.9 32.5001 48.6C32.6001 48.2 32.5001 47.7 32.5001 47.3Z" fill="#FAFBFA"/>
<path d="M17.2001 28.5C19.0001 27.8 20.1001 26.4 20.4001 24.6C20.7001 22.6 22.2001 21.8 23.6001 22.1C25.2001 22.4 24.9001 24.4 25.0001 25.8C25.0001 26.1 24.7001 26.4 24.9001 26.7C26.4001 28.3 25.5001 29 23.9001 29.4C21.8001 30 19.7001 30.7 17.5001 30.3C17.1001 29.7 17.0001 29.1 17.2001 28.5Z" fill="#85D9FC"/>
<path d="M28.9001 12.7C28.9001 13.5 28.9001 14.2 28.9001 15C29.2001 15 29.3001 15 29.4001 14.9C29.9001 14.1 30.9001 13.1 31.4001 13.7C32.0001 14.5 32.3001 15.9 31.9001 17.1C31.8001 17.4 31.5001 17.6 31.3001 17.5C29.9001 16.2 28.9001 17.8 27.7001 17.9C25.9001 18 24.1001 18.6 22.2001 17.9C22.9001 18.7 23.9001 19.4 22.7001 20.5C21.8001 19.5 21.5001 18.2 21.1001 17C23.3001 14.8 25.8001 13.2 28.9001 12.7Z" fill="#85D9FC"/>
<path d="M42.4001 16.1V16.3C41.6001 16.8 41.2001 18.6 39.7001 17.3C38.3001 19.8 36.8001 15.9 35.2001 17.3C35.0001 17.4 34.7001 16.5 35.1001 15.9C35.7001 15 36.0001 14 36.3001 12.9C38.7001 13.4 40.5001 14.8 42.4001 16.1Z" fill="#85D9FC"/>
<path d="M41.3001 39.2C41.1001 37.5 42.5001 35.5 40.6001 34.1C39.9001 34.5 41.2001 35.9 39.8001 35.8C39.1001 35.8 38.0001 35.8 38.1001 34.5C38.5001 33.7 39.2001 33 38.6001 31.8C37.7001 32.6 37.9001 33.7 37.5001 34.5C37.6001 36.1 37.0001 36.8 35.3001 37.3C33.8001 37.7 32.4001 38.8 31.0001 39.5C30.2001 39.9 29.5001 40.1 28.7001 39.4C27.9001 38.6 28.7001 38 28.9001 37.4C29.3001 36.2 30.2001 35.4 31.1001 34.5C32.6001 32.9 32.6001 32.2 31.0001 30.8C29.9001 29.8 29.8001 28.8 31.0001 27.8C33.8001 25.6 36.2001 26.2 37.4001 29.6C37.9001 30.9 38.6001 31.1 39.5001 30C39.9001 29.6 40.2001 29.9 40.5001 30.1C40.8001 30.3 41.2001 30.5 41.5001 30C41.6001 29.8 41.6001 29.5 41.5001 29.3C41.3001 28.7 40.9001 29 40.6001 29.1C39.9001 29.3 39.2001 29.2 39.1001 28.4C38.9001 27.2 38.3001 26.9 37.2001 26.7C36.4001 26.6 35.7001 26.1 35.2001 25.3C37.6001 24.4 39.8001 26 42.3001 25.9C41.6001 25.2 40.5001 24.8 40.6001 23.6C44.1001 22.7 44.1001 22.7 45.5001 26.1C45.8001 26.8 46.4001 27 47.0001 27.2C47.2001 32.2 45.3001 36.2 41.3001 39.2ZM43.1001 24.5C43.0001 24.4 42.9001 24.2 42.8001 24.2C42.6001 24.1 42.5001 24.3 42.5001 24.5C42.5001 24.6 42.6001 24.7 42.7001 24.7C42.9001 24.7 43.0001 24.6 43.1001 24.5Z" fill="#85D9FC"/>
<path opacity="0.56" d="M41.3001 39.2C45.3001 36.2 47.2002 32.2 47.0002 27.2C47.2002 23.3 45.5001 20.2 43.3001 17.2C45.4001 14.8 45.4002 14.8 47.1002 17.4C51.8002 24.7 50.9001 34.1 44.9001 40.1C38.8001 46.2 29.3002 47.1 22.2002 42.4C19.6002 40.7 19.6001 40.7 21.8001 38.5C24.9001 40.9 28.3001 42.5 32.3001 42.4C35.7001 42.4 38.8001 41.4 41.3001 39.2Z" fill="#11198B" stroke="#11198B" stroke-width="0.75" stroke-miterlimit="10"/>
<path d="M33.7001 40.5C33.2001 40.5 32.8001 40.5 32.9001 39.9C33.0001 39.2 33.5001 39 34.2001 39C34.6001 39 35.1001 39 34.9001 39.5C34.7001 40.2 34.2001 40.5 33.7001 40.5Z" fill="#85D9FC"/>
<path d="M37.5001 34.5C37.9001 33.7 37.7001 32.6 38.6001 31.8C39.2001 33 38.5001 33.7 38.1001 34.5C37.9001 34.5 37.7001 34.5 37.5001 34.5Z" fill="#E4E6EB"/>
<path d="M43.1001 24.5C43.0001 24.6 42.8001 24.7 42.7001 24.7C42.7001 24.7 42.5001 24.6 42.5001 24.5C42.5001 24.3 42.6001 24.2 42.8001 24.2C43.0001 24.3 43.0001 24.4 43.1001 24.5Z" fill="#FAFBFA"/>
</svg>
