<svg width="68" height="68" viewBox="0 0 68 68" fill="none" xmlns="http://www.w3.org/2000/svg">
<path opacity="0.56" d="M11.6001 58.0201C6.20009 53.4201 3.1001 47.52 1.7001 40.72C-2.4999 19.22 14.2001 0.0200369 36.2001 1.22004C51.9001 2.12004 65.3001 15.12 66.7001 30.82C67.6001 40.82 64.5001 49.42 57.9001 56.82C57.5001 57.32 56.9001 57.62 56.4001 57.92C51.6001 57.92 46.7001 57.92 41.9001 57.82C42.6001 56.62 42.3001 55.82 40.9001 55.72C38.3001 55.52 37.1001 53.82 36.3001 51.82C35.7001 50.32 35.4001 48.82 35.3001 47.22C35.6001 47.12 35.9001 47.02 36.2001 46.92C50.9001 43.52 56.7001 26.92 47.5001 15.02C47.1001 14.52 46.5001 14.12 47.2001 13.32C47.6001 12.82 47.2001 12.12 46.6001 12.42C45.8001 12.82 45.2001 12.72 44.5001 12.42C43.9001 12.22 43.4001 12.92 43.6001 13.32C44.7001 15.12 42.9001 15.42 42.3001 16.32C40.4001 15.02 38.6001 13.62 36.3001 13.12C33.9001 12.32 31.4001 12.22 28.9001 12.82C25.7001 13.32 23.2001 14.92 21.1001 17.22C18.1001 20.42 16.7001 24.22 17.1001 28.52C17.0001 29.22 17.1001 29.82 17.4001 30.42C17.6001 33.32 19.3001 35.52 20.9001 37.72C20.3001 38.32 19.5001 39.52 19.2001 39.32C17.1001 38.62 17.2001 39.22 17.2001 41.22C17.2001 42.92 16.8001 43.12 18.4001 42.22C18.8001 42.02 19.1001 42.42 19.4001 42.62C23.2001 45.82 27.7001 47.22 32.6001 47.32C32.6001 47.72 32.6001 48.22 32.5001 48.62C31.8001 52.02 31.1001 55.32 26.7001 55.72C25.5001 55.82 25.5001 56.82 26.1001 57.72C21.3001 57.92 16.4001 57.9201 11.6001 58.0201Z" fill="#1927F4" stroke="#4147A2" stroke-width="0.75" stroke-miterlimit="10"/>
<path d="M41.9002 57.92C46.7002 57.92 51.6002 57.9201 56.4002 58.0201C52.2002 62.5201 46.9002 65.12 41.0002 66.32C30.7002 68.42 21.4002 66.22 13.1002 59.62C12.6002 59.22 12.1002 58.62 11.7002 58.12C16.5002 58.12 21.3002 58.0201 26.1002 58.0201C31.3002 58.1201 36.6002 58.12 41.9002 57.92Z" fill="#272947"/>
<path d="M28.9 12.82C31.4 12.12 33.8 12.22 36.3 13.12C36 14.12 35.7 15.22 35.1 16.12C34.7 16.62 35 17.62 35.2 17.52C36.8 16.12 38.2 20.02 39.7 17.52C41.2 18.72 41.5 17.02 42.4 16.52C42.7 16.82 43.1 17.12 43.4 17.42C45.5 20.42 47.3 23.52 47.1 27.42C46.5 27.12 45.9 26.92 45.6 26.32C44.2 22.92 44.2 22.92 40.7 23.82C40.6 25.02 41.6 25.42 42.4 26.12C40 26.22 37.8 24.62 35.3 25.52C35.7 26.32 36.5 26.82 37.3 26.92C38.4 27.12 39 27.42 39.2 28.62C39.3 29.42 40 29.42 40.7 29.32C41.1 29.22 41.5 29.02 41.6 29.52C41.7 29.72 41.7 30.02 41.6 30.22C41.3 30.72 41 30.52 40.6 30.32C40.3 30.12 40 29.82 39.6 30.22C38.7 31.22 38 31.12 37.5 29.82C36.3 26.42 33.9 25.82 31.1 28.02C29.8 29.02 29.9 30.02 31.1 31.02C32.6 32.42 32.7 33.12 31.2 34.72C30.4 35.62 29.5 36.42 29 37.62C28.8 38.32 28 38.92 28.8 39.62C29.5 40.32 30.3 40.12 31.1 39.72C32.6 39.02 34 38.02 35.4 37.52C37.1 37.02 37.7 36.32 37.6 34.72C37.8 34.72 38 34.72 38.2 34.72C38.1 36.02 39.1 36.02 39.9 36.02C41.3 36.12 40.1 34.62 40.7 34.32C42.6 35.82 41.2 37.72 41.4 39.42C38.8 41.72 35.8 42.62 32.4 42.72C28.4 42.82 25 41.22 21.9 38.82C21.7 38.42 21.4 38.02 21 37.82C19.4 35.62 17.8 33.42 17.5 30.52C19.7 30.92 21.8 30.22 23.9 29.62C25.5 29.12 26.5 28.52 24.9 26.92C24.7 26.62 25 26.32 25 26.02C24.9 24.62 25.1 22.62 23.6 22.32C22.3 22.02 20.8 22.92 20.4 24.82C20.1 26.62 19 28.02 17.2 28.72C16.8 24.32 18.2 20.62 21.2 17.42C21.6 18.62 21.9 19.92 22.8 20.92C24 19.72 23 19.12 22.3 18.32C24.2 18.92 26 18.42 27.8 18.32C29 18.22 30 16.62 31.4 17.92C31.6 18.12 31.9 17.82 32 17.52C32.4 16.32 32.1 14.92 31.5 14.12C31 13.52 30 14.52 29.5 15.32C29.5 15.42 29.3 15.42 29 15.42C28.9 14.32 28.9 13.62 28.9 12.82ZM33.7 40.62C34.2 40.52 34.7 40.32 34.9 39.72C35 39.12 34.5 39.22 34.2 39.22C33.6 39.22 33.1 39.42 32.9 40.12C32.8 40.62 33.2 40.72 33.7 40.62Z" fill="#FAFBFA"/>
<path d="M20.9001 37.72C21.3001 37.92 21.6001 38.22 21.8001 38.72C19.6001 40.92 19.6001 40.92 22.2001 42.62C29.3001 47.32 38.8001 46.32 44.9001 40.32C50.9001 34.32 51.8001 24.82 47.1001 17.62C45.4001 15.02 45.4001 15.02 43.3001 17.42C43.0001 17.12 42.6001 16.82 42.3001 16.52V16.32C42.9001 15.42 44.7001 15.12 43.6001 13.32C43.3001 12.92 43.9001 12.22 44.5001 12.42C45.2001 12.62 45.8001 12.82 46.6001 12.42C47.2001 12.12 47.6001 12.82 47.2001 13.32C46.5001 14.12 47.1001 14.52 47.5001 15.02C56.7001 26.92 50.9001 43.52 36.2001 46.92C35.9001 47.02 35.6001 47.12 35.3001 47.22C34.4001 47.32 33.5001 47.32 32.5001 47.42C27.6001 47.32 23.1001 45.92 19.3001 42.72C19.0001 42.52 18.8001 42.12 18.3001 42.32C16.7001 43.22 17.0001 43.02 17.1001 41.32C17.2001 39.32 17.0001 38.82 19.1001 39.42C19.5001 39.52 20.3001 38.32 20.9001 37.72Z" fill="#334B5E"/>
<path d="M32.5002 47.42C33.4002 47.32 34.3002 47.32 35.3002 47.22C35.4002 48.82 35.7002 50.42 36.3002 51.82C37.2002 53.92 38.3002 55.62 40.9002 55.72C42.3002 55.82 42.6002 56.62 41.9002 57.82C36.6002 58.02 31.4002 58.02 26.1002 57.82C25.6002 56.92 25.5002 55.92 26.7002 55.82C31.1002 55.32 31.8002 52.02 32.5002 48.72C32.6002 48.32 32.5002 47.82 32.5002 47.42Z" fill="#FAFBFA"/>
<path d="M17.2001 28.62C19.0001 27.92 20.1001 26.52 20.4001 24.72C20.7001 22.72 22.2001 21.92 23.6001 22.22C25.2001 22.52 24.9001 24.52 25.0001 25.92C25.0001 26.22 24.7001 26.52 24.9001 26.82C26.4001 28.42 25.5001 29.12 23.9001 29.52C21.8001 30.12 19.7001 30.82 17.5001 30.42C17.1001 29.82 17.0001 29.22 17.2001 28.62Z" fill="#85D9FC"/>
<path d="M28.9001 12.82C28.9001 13.62 28.9001 14.32 28.9001 15.12C29.2001 15.12 29.3001 15.12 29.4001 15.02C29.9001 14.22 30.9001 13.22 31.4001 13.82C32.0001 14.62 32.3001 16.02 31.9001 17.22C31.8001 17.52 31.5001 17.72 31.3001 17.62C29.9001 16.32 28.9001 17.92 27.7001 18.02C25.9001 18.12 24.1001 18.72 22.2001 18.02C22.9001 18.82 23.9001 19.52 22.7001 20.62C21.8001 19.62 21.5001 18.32 21.1001 17.12C23.3001 14.92 25.8001 13.32 28.9001 12.82Z" fill="#85D9FC"/>
<path d="M42.4 16.22V16.42C41.6 16.92 41.2 18.72 39.7 17.42C38.3 19.92 36.8 16.02 35.2 17.42C35 17.52 34.7 16.62 35.1 16.02C35.7 15.12 36 14.12 36.3 13.02C38.7 13.52 40.5 14.92 42.4 16.22Z" fill="#85D9FC"/>
<path d="M41.3001 39.32C41.1001 37.62 42.5001 35.62 40.6001 34.22C39.9001 34.62 41.2001 36.02 39.8001 35.92C39.1001 35.92 38.0001 35.92 38.1001 34.62C38.5001 33.82 39.2001 33.12 38.6001 31.92C37.7001 32.72 37.9001 33.82 37.5001 34.62C37.6001 36.22 37.0001 36.92 35.3001 37.42C33.8001 37.82 32.4001 38.92 31.0001 39.62C30.2001 40.02 29.5001 40.22 28.7001 39.52C27.9001 38.72 28.7001 38.12 28.9001 37.52C29.3001 36.32 30.2001 35.52 31.1001 34.62C32.6001 33.02 32.6001 32.32 31.0001 30.92C29.9001 29.92 29.8001 28.92 31.0001 27.92C33.8001 25.72 36.2001 26.32 37.4001 29.72C37.9001 31.02 38.6001 31.22 39.5001 30.12C39.9001 29.72 40.2001 30.02 40.5001 30.22C40.8001 30.42 41.2001 30.62 41.5001 30.12C41.6001 29.92 41.6001 29.62 41.5001 29.42C41.3001 28.82 40.9001 29.12 40.6001 29.22C39.9001 29.42 39.2001 29.32 39.1001 28.52C38.9001 27.32 38.3001 27.02 37.2001 26.82C36.4001 26.72 35.7001 26.22 35.2001 25.42C37.6001 24.52 39.8001 26.12 42.3001 26.02C41.6001 25.32 40.5001 24.92 40.6001 23.72C44.1001 22.82 44.1001 22.82 45.5001 26.22C45.8001 26.92 46.4001 27.12 47.0001 27.32C47.2001 32.32 45.3001 36.32 41.3001 39.32ZM43.1001 24.62C43.0001 24.52 42.9001 24.32 42.8001 24.32C42.6001 24.22 42.5001 24.42 42.5001 24.62C42.5001 24.72 42.6001 24.82 42.7001 24.82C42.9001 24.82 43.0001 24.72 43.1001 24.62Z" fill="#85D9FC"/>
<path opacity="0.56" d="M41.3001 39.32C45.3001 36.32 47.2002 32.32 47.0002 27.32C47.2002 23.42 45.5001 20.32 43.3001 17.32C45.4001 14.92 45.4002 14.92 47.1002 17.52C51.8002 24.82 50.9001 34.22 44.9001 40.22C38.8001 46.32 29.3002 47.22 22.2002 42.52C19.6002 40.82 19.6001 40.82 21.8001 38.62C24.9001 41.02 28.3001 42.62 32.3001 42.52C35.7001 42.52 38.8001 41.52 41.3001 39.32Z" fill="#1927F4" stroke="#4147A2" stroke-width="0.75" stroke-miterlimit="10"/>
<path d="M33.7002 40.62C33.2002 40.62 32.8002 40.62 32.9002 40.02C33.0002 39.32 33.5002 39.12 34.2002 39.12C34.6002 39.12 35.1002 39.12 34.9002 39.62C34.7002 40.32 34.2002 40.62 33.7002 40.62Z" fill="#85D9FC"/>
<path d="M37.5 34.62C37.9 33.82 37.7 32.72 38.6 31.92C39.2 33.12 38.5 33.82 38.1 34.62C37.9 34.62 37.7 34.62 37.5 34.62Z" fill="#E4E6EB"/>
<path d="M43.1 24.62C43 24.72 42.8 24.82 42.7 24.82C42.7 24.82 42.5 24.72 42.5 24.62C42.5 24.42 42.6 24.32 42.8 24.32C43 24.42 43 24.52 43.1 24.62Z" fill="#FAFBFA"/>
</svg>
