<svg width="68" height="67" viewBox="0 0 68 67" fill="none" xmlns="http://www.w3.org/2000/svg">
<path opacity="0.56" d="M34.0001 0.399986C52.5001 0.299986 67.1001 14.9 67.3001 33.2C67.5001 50.9 52.9001 66.4 34.3001 66.5C16.1001 66.5 1.2001 51.8 1.1001 33.7C1.1001 15.1 15.6001 0.399986 34.0001 0.399986ZM54.2001 17.5C55.1001 17.2 55.4001 16.6 55.3001 15.7C55.1001 14.7 54.3001 14.7 53.5001 14.7C50.7001 14.7 47.9001 14.7 45.0001 14.7C44.2001 14.7 43.4001 14.8 43.1001 15.6C42.7001 16.5 43.4001 17 44.1001 17.4C44.1001 17.8 44.1001 18.2 44.2001 18.6C44.2001 19.7 44.2001 20.8 44.2001 21.9C44.2001 30.1 44.2001 38.4 44.2001 46.6C44.2001 49.6 46.3001 52 49.2001 52.2C51.7001 52.4 53.9001 50.4 54.4001 47.5C54.5001 46.9 54.5001 46.2 54.5001 45.6C54.5001 37.3 54.5001 29 54.5001 20.7C54.5001 20 54.7001 19.3 54.3001 18.6C54.1001 18.2 54.2001 17.8 54.2001 17.5ZM24.4001 17.4C25.1001 17 25.8001 16.5 25.4001 15.6C25.0001 14.8 24.3001 14.7 23.5001 14.7C20.7001 14.7 17.8001 14.7 15.0001 14.7C14.3001 14.7 13.5001 14.6 13.3001 15.5C13.0001 16.4 13.3001 17.1 14.3001 17.5C14.3001 17.9 14.4001 18.2 14.4001 18.6C14.4001 28 14.5001 37.5 14.3001 46.9C14.3001 50.1 16.8001 52.1 19.3001 52.2C22.0001 52.3 24.5001 49.9 24.5001 47C24.5001 37.6 24.5001 28.1 24.5001 18.7C24.3001 18.2 24.3001 17.8 24.4001 17.4ZM29.0001 17.4C29.1001 17.8 29.1001 18.2 29.2001 18.6C29.0001 28.1 29.0001 37.6 29.2001 47.2C29.3001 47.3 29.3001 47.5 29.4001 47.6C29.7001 50.2 31.7001 52.1 34.3001 52.1C36.8001 52.1 38.8001 50.3 39.2001 47.6C39.3001 47.4 39.3001 47.3 39.4001 47.1C39.4001 37.6 39.4001 28.1 39.4001 18.5C39.4001 18.1 39.5001 17.7 39.5001 17.3C40.1001 16.9 40.8001 16.5 40.5001 15.7C40.2001 14.8 39.5001 14.6 38.7001 14.6C35.8001 14.6 32.8001 14.6 29.9001 14.6C29.1001 14.6 28.5001 14.8 28.2001 15.5C27.6001 16.5 28.3001 17 29.0001 17.4Z" fill="#FB614E" stroke="#FB614E" stroke-width="0.75" stroke-miterlimit="10"/>
<path d="M54.1001 18.5C54.5001 19.1 54.3001 19.9 54.3001 20.6C54.3001 28.9 54.3001 37.2 54.3001 45.5C54.3001 46.1 54.3001 46.8 54.2001 47.4C53.7001 50.3 51.5001 52.2 49.0001 52.1C46.1001 51.9 44.0001 49.6 44.0001 46.5C44.0001 38.3 44.0001 30 44.0001 21.8C44.0001 20.7 44.0001 19.6 44.0001 18.5C47.4001 18.6 50.8001 18.5 54.1001 18.5ZM45.2001 41.2C45.2001 43 45.2001 44.8 45.2001 46.6C45.2001 49.3 46.8001 51 49.2001 51C51.5001 51 53.2001 49.2 53.3001 46.7C53.3001 43 53.3001 39.2 53.3001 35.5C53.3001 34.5 53.0001 34.2 52.0001 34.2C50.1001 34.3 48.3001 34.3 46.4001 34.2C45.3001 34.1 45.1001 34.6 45.1001 35.5C45.2001 37.5 45.2001 39.4 45.2001 41.2Z" fill="#FAFBFA"/>
<path d="M39.3001 18.6C39.3001 28.1 39.3001 37.6 39.3001 47.2C39.2001 47.4 39.2001 47.5 39.1001 47.7C38.7001 50.4 36.7001 52.2 34.2001 52.2C31.7001 52.2 29.7001 50.3 29.3001 47.7C29.2001 47.6 29.2001 47.4 29.1001 47.3C29.0001 37.8 28.9001 28.3 29.1001 18.7C32.5001 18.6 35.9001 18.6 39.3001 18.6ZM38.2001 41.3C38.2001 39.4 38.2001 37.5 38.2001 35.5C38.2001 34.6 37.9001 34.2 37.0001 34.3C35.2001 34.3 33.4001 34.4 31.6001 34.3C30.4001 34.2 30.1001 34.7 30.1001 35.9C30.2001 39.5 30.1001 43.1 30.1001 46.7C30.1001 49.3 31.8001 51.1 34.2001 51.1C36.4001 51.1 38.1001 49.3 38.2001 46.8C38.3001 44.9 38.2001 43.1 38.2001 41.3Z" fill="#FAFBFA"/>
<path d="M24.3001 18.6C24.3001 28 24.4001 37.5 24.3001 46.9C24.3001 49.8 21.8001 52.2 19.1001 52.1C16.7001 52 14.1001 50.1 14.1001 46.8C14.2001 37.4 14.2001 27.9 14.2001 18.5C17.6001 18.6 20.9001 18.6 24.3001 18.6ZM23.2001 41.5C23.2001 39.6 23.2001 37.6 23.2001 35.7C23.2001 34.8 23.0001 34.3 21.9001 34.3C20.0001 34.4 18.2001 34.3 16.3001 34.3C15.6001 34.3 15.1001 34.5 15.1001 35.4C15.1001 39.4 15.0001 43.4 15.2001 47.4C15.3001 49.6 17.3001 51.1 19.4001 51C21.6001 50.9 23.1001 49.3 23.2001 46.9C23.2001 45.1 23.2001 43.3 23.2001 41.5Z" fill="#FAFBFA"/>
<path d="M29.0001 17.4C28.3001 17 27.6001 16.5 28.0001 15.6C28.3001 14.9 29.0001 14.7 29.7001 14.7C32.6001 14.7 35.6001 14.7 38.5001 14.7C39.3001 14.7 40.1001 14.9 40.3001 15.8C40.5001 16.6 39.9001 17.1 39.3001 17.4C35.9001 17.4 32.5001 17.4 29.0001 17.4Z" fill="#FAFBFA"/>
<path d="M14.2001 17.5C13.2001 17.2 12.9001 16.5 13.2001 15.5C13.5001 14.6 14.2001 14.7 14.9001 14.7C17.7001 14.7 20.6001 14.7 23.4001 14.7C24.2001 14.7 25.0001 14.8 25.3001 15.6C25.7001 16.5 25.0001 17 24.3001 17.4C21.0001 17.4 17.6001 17.5 14.2001 17.5Z" fill="#FAFBFA"/>
<path d="M44.0001 17.4C43.3001 17 42.6001 16.5 43.0001 15.6C43.4001 14.8 44.1001 14.7 44.9001 14.7C47.7001 14.7 50.5001 14.7 53.4001 14.7C54.2001 14.7 55.0001 14.7 55.2001 15.7C55.4001 16.6 55.0001 17.2 54.1001 17.5C50.8001 17.5 47.4001 17.4 44.0001 17.4Z" fill="#FAFBFA"/>
<path d="M29.0001 17.4C32.5001 17.4 35.9001 17.4 39.4001 17.4C39.4001 17.8 39.3001 18.2 39.2001 18.6C35.8001 18.6 32.5001 18.6 29.1001 18.6C29.1001 18.2 29.0001 17.8 29.0001 17.4Z" fill="#E4E6EB"/>
<path d="M14.2001 17.5C17.6001 17.5 21.0001 17.5 24.4001 17.5C24.4001 17.9 24.3 18.3 24.3 18.7C21 18.7 17.6 18.7 14.3 18.7C14.2 18.2 14.2001 17.8 14.2001 17.5Z" fill="#E4E6EB"/>
<path d="M44.0001 17.4C47.4001 17.4 50.8001 17.4 54.2001 17.5C54.2001 17.9 54.2001 18.2 54.1001 18.6C50.8001 18.6 47.4001 18.6 44.1001 18.6C44.1001 18.2 44.0001 17.8 44.0001 17.4Z" fill="#E4E6EB"/>
<path d="M39.1001 47.6C39.2001 47.4 39.2001 47.3 39.3001 47.1C39.2001 47.3 39.1001 47.5 39.1001 47.6Z" fill="#E4E6EB"/>
<path d="M29.1001 47.2C29.2001 47.3 29.2001 47.5 29.3001 47.6C29.2001 47.4 29.2001 47.3 29.1001 47.2Z" fill="#E4E6EB"/>
<path d="M45.2001 41.2C45.2001 39.3 45.2001 37.5 45.2001 35.6C45.2001 34.7 45.4 34.2 46.5 34.3C48.4 34.4 50.2001 34.4 52.1001 34.3C53.1001 34.3 53.4 34.5 53.4 35.6C53.3 39.3 53.4 43.1 53.4 46.8C53.4 49.3 51.6 51 49.3 51.1C46.9 51.1 45.3 49.4 45.3 46.7C45.1 44.8 45.2001 43 45.2001 41.2Z" fill="#334B5E"/>
<path d="M38.2001 41.3C38.2001 43.1 38.2001 44.9 38.2001 46.7C38.1001 49.2 36.4001 51 34.2001 51C31.8001 51 30.1001 49.2 30.1001 46.6C30.1001 43 30.1001 39.4 30.1001 35.8C30.1001 34.7 30.4001 34.2 31.6001 34.2C33.4001 34.3 35.2001 34.2 37.0001 34.2C37.9001 34.2 38.3001 34.5 38.2001 35.4C38.2001 37.5 38.2001 39.4 38.2001 41.3Z" fill="#FDCF5D"/>
<path d="M23.2001 41.5C23.2001 43.3 23.2001 45.1 23.2001 46.9C23.1001 49.2 21.6001 50.8 19.4001 51C17.3001 51.1 15.3001 49.6 15.2001 47.4C15.0001 43.4 15.1001 39.4 15.1001 35.4C15.1001 34.5 15.6001 34.3 16.3001 34.3C18.2001 34.3 20.0001 34.3 21.9001 34.3C23.0001 34.3 23.2001 34.8 23.2001 35.7C23.2001 37.7 23.2001 39.6 23.2001 41.5Z" fill="#85D9FC"/>
</svg>
