<svg width="68" height="67" viewBox="0 0 68 67" fill="none" xmlns="http://www.w3.org/2000/svg">
<path opacity="0.56" d="M34.0001 0.520011C52.5001 0.420011 67.1001 15.02 67.3001 33.32C67.5001 51.02 52.9001 66.52 34.3001 66.62C16.1001 66.62 1.2001 51.92 1.1001 33.82C1.1001 15.22 15.6001 0.520011 34.0001 0.520011ZM54.2001 17.62C55.1001 17.32 55.4001 16.72 55.3001 15.82C55.1001 14.82 54.3001 14.82 53.5001 14.82C50.7001 14.82 47.9001 14.82 45.0001 14.82C44.2001 14.82 43.4001 14.92 43.1001 15.72C42.7001 16.62 43.4001 17.12 44.1001 17.52C44.1001 17.92 44.1001 18.32 44.2001 18.72C44.2001 19.82 44.2001 20.92 44.2001 22.02C44.2001 30.22 44.2001 38.52 44.2001 46.72C44.2001 49.72 46.3001 52.12 49.2001 52.32C51.7001 52.52 53.9001 50.52 54.4001 47.62C54.5001 47.02 54.5001 46.32 54.5001 45.72C54.5001 37.42 54.5001 29.12 54.5001 20.82C54.5001 20.12 54.7001 19.42 54.3001 18.72C54.1001 18.32 54.2001 17.92 54.2001 17.62ZM24.4001 17.52C25.1001 17.12 25.8001 16.62 25.4001 15.72C25.0001 14.92 24.3001 14.82 23.5001 14.82C20.7001 14.82 17.8001 14.82 15.0001 14.82C14.3001 14.82 13.5001 14.72 13.3001 15.62C13.0001 16.52 13.3001 17.22 14.3001 17.62C14.3001 18.02 14.4001 18.32 14.4001 18.72C14.4001 28.12 14.5001 37.62 14.3001 47.02C14.3001 50.22 16.8001 52.22 19.3001 52.32C22.0001 52.42 24.5001 50.02 24.5001 47.12C24.5001 37.72 24.5001 28.22 24.5001 18.82C24.3001 18.32 24.3001 17.92 24.4001 17.52ZM29.0001 17.52C29.1001 17.92 29.1001 18.32 29.2001 18.72C29.0001 28.22 29.0001 37.72 29.2001 47.32C29.3001 47.42 29.3001 47.62 29.4001 47.72C29.7001 50.32 31.7001 52.22 34.3001 52.22C36.8001 52.22 38.8001 50.42 39.2001 47.72C39.3001 47.52 39.3001 47.42 39.4001 47.22C39.4001 37.72 39.4001 28.22 39.4001 18.62C39.4001 18.22 39.5001 17.82 39.5001 17.42C40.1001 17.02 40.8001 16.62 40.5001 15.82C40.2001 14.92 39.5001 14.72 38.7001 14.72C35.8001 14.72 32.8001 14.72 29.9001 14.72C29.1001 14.72 28.5001 14.92 28.2001 15.62C27.6001 16.62 28.3001 17.12 29.0001 17.52Z" fill="#1927F4" stroke="#4147A2" stroke-width="0.75" stroke-miterlimit="10"/>
<path d="M54.1 18.62C54.5 19.22 54.3 20.02 54.3 20.72C54.3 29.02 54.3 37.32 54.3 45.62C54.3 46.22 54.3 46.92 54.2 47.5201C53.7 50.42 51.5 52.32 49 52.22C46.1 52.02 44 49.72 44 46.62C44 38.42 44 30.12 44 21.92C44 20.82 44 19.72 44 18.62C47.4 18.72 50.8 18.62 54.1 18.62ZM45.2 41.32C45.2 43.12 45.2 44.92 45.2 46.72C45.2 49.42 46.8 51.12 49.2 51.12C51.5 51.12 53.2 49.32 53.3 46.82C53.3 43.12 53.3 39.32 53.3 35.62C53.3 34.62 53 34.32 52 34.32C50.1 34.42 48.3 34.42 46.4 34.32C45.3 34.22 45.1 34.72 45.1 35.62C45.2 37.62 45.2 39.52 45.2 41.32Z" fill="#FAFBFA"/>
<path d="M39.3001 18.72C39.3001 28.22 39.3001 37.72 39.3001 47.32C39.2001 47.52 39.2001 47.62 39.1001 47.82C38.7001 50.52 36.7001 52.32 34.2001 52.32C31.7001 52.32 29.7001 50.42 29.3001 47.82C29.2001 47.72 29.2001 47.52 29.1001 47.42C29.0001 37.92 28.9001 28.42 29.1001 18.82C32.5001 18.72 35.9001 18.72 39.3001 18.72ZM38.2001 41.42C38.2001 39.52 38.2001 37.62 38.2001 35.62C38.2001 34.72 37.9001 34.32 37.0001 34.42C35.2001 34.42 33.4001 34.52 31.6001 34.42C30.4001 34.32 30.1001 34.82 30.1001 36.02C30.2001 39.62 30.1001 43.22 30.1001 46.82C30.1001 49.42 31.8001 51.22 34.2001 51.22C36.4001 51.22 38.1001 49.42 38.2001 46.92C38.3001 45.02 38.2001 43.22 38.2001 41.42Z" fill="#FAFBFA"/>
<path d="M24.3001 18.72C24.3001 28.12 24.4001 37.6201 24.3001 47.0201C24.3001 49.92 21.8001 52.32 19.1001 52.22C16.7001 52.12 14.1001 50.22 14.1001 46.92C14.2001 37.52 14.2001 28.02 14.2001 18.62C17.6001 18.72 20.9001 18.72 24.3001 18.72ZM23.2001 41.62C23.2001 39.72 23.2001 37.72 23.2001 35.82C23.2001 34.92 23.0001 34.42 21.9001 34.42C20.0001 34.52 18.2001 34.42 16.3001 34.42C15.6001 34.42 15.1001 34.62 15.1001 35.52C15.1001 39.52 15.0001 43.5201 15.2001 47.5201C15.3001 49.7201 17.3001 51.22 19.4001 51.12C21.6001 51.02 23.1001 49.42 23.2001 47.0201C23.2001 45.2201 23.2001 43.42 23.2001 41.62Z" fill="#FAFBFA"/>
<path d="M29.0001 17.52C28.3001 17.12 27.6001 16.62 28.0001 15.72C28.3001 15.02 29.0001 14.82 29.7001 14.82C32.6001 14.82 35.6001 14.82 38.5001 14.82C39.3001 14.82 40.1001 15.02 40.3001 15.92C40.5001 16.72 39.9001 17.22 39.3001 17.52C35.9001 17.52 32.5001 17.52 29.0001 17.52Z" fill="#FAFBFA"/>
<path d="M14.2001 17.62C13.2001 17.32 12.9001 16.62 13.2001 15.62C13.5001 14.72 14.2001 14.82 14.9001 14.82C17.7001 14.82 20.6001 14.82 23.4001 14.82C24.2001 14.82 25.0001 14.92 25.3001 15.72C25.7001 16.62 25.0001 17.12 24.3001 17.52C21.0001 17.52 17.6001 17.62 14.2001 17.62Z" fill="#FAFBFA"/>
<path d="M44.0001 17.52C43.3001 17.12 42.6001 16.62 43.0001 15.72C43.4001 14.92 44.1001 14.82 44.9001 14.82C47.7001 14.82 50.5001 14.82 53.4001 14.82C54.2001 14.82 55.0001 14.82 55.2001 15.82C55.4001 16.72 55.0001 17.32 54.1001 17.62C50.8001 17.62 47.4001 17.52 44.0001 17.52Z" fill="#FAFBFA"/>
<path d="M29 17.52C32.5 17.52 35.9 17.52 39.4 17.52C39.4 17.92 39.3 18.32 39.2 18.72C35.8 18.72 32.5 18.72 29.1 18.72C29.1 18.32 29 17.92 29 17.52Z" fill="#E4E6EB"/>
<path d="M14.2002 17.62C17.6002 17.62 21.0002 17.62 24.4002 17.62C24.4002 18.02 24.3002 18.42 24.3002 18.82C21.0002 18.82 17.6002 18.82 14.3002 18.82C14.2002 18.32 14.2002 17.92 14.2002 17.62Z" fill="#E4E6EB"/>
<path d="M44 17.52C47.4 17.52 50.8 17.52 54.2 17.62C54.2 18.02 54.2 18.32 54.1 18.72C50.8 18.72 47.4 18.72 44.1 18.72C44.1 18.32 44 17.92 44 17.52Z" fill="#E4E6EB"/>
<path d="M39.1001 47.72C39.2001 47.52 39.2001 47.42 39.3001 47.22C39.2001 47.42 39.1001 47.62 39.1001 47.72Z" fill="#E4E6EB"/>
<path d="M29.1001 47.32C29.2001 47.42 29.2001 47.62 29.3001 47.72C29.2001 47.52 29.2001 47.42 29.1001 47.32Z" fill="#E4E6EB"/>
<path d="M45.2001 41.3201C45.2001 39.4201 45.2001 37.62 45.2001 35.72C45.2001 34.82 45.4 34.32 46.5 34.42C48.4 34.52 50.2001 34.52 52.1001 34.42C53.1001 34.42 53.4 34.62 53.4 35.72C53.3 39.42 53.4 43.22 53.4 46.92C53.4 49.42 51.6 51.12 49.3 51.22C46.9 51.22 45.3 49.5201 45.3 46.8201C45.1 44.9201 45.2001 43.1201 45.2001 41.3201Z" fill="#334B5E"/>
<path d="M38.2001 41.42C38.2001 43.22 38.2001 45.02 38.2001 46.82C38.1001 49.32 36.4001 51.12 34.2001 51.12C31.8001 51.12 30.1001 49.32 30.1001 46.72C30.1001 43.12 30.1001 39.52 30.1001 35.92C30.1001 34.82 30.4001 34.32 31.6001 34.32C33.4001 34.42 35.2001 34.32 37.0001 34.32C37.9001 34.32 38.3001 34.62 38.2001 35.52C38.2001 37.62 38.2001 39.52 38.2001 41.42Z" fill="#D6C8FF"/>
<path d="M23.2002 41.62C23.2002 43.42 23.2002 45.22 23.2002 47.0201C23.1002 49.3201 21.6002 50.92 19.4002 51.12C17.3002 51.22 15.3002 49.72 15.2002 47.5201C15.0002 43.5201 15.1002 39.52 15.1002 35.52C15.1002 34.62 15.6002 34.42 16.3002 34.42C18.2002 34.42 20.0002 34.42 21.9002 34.42C23.0002 34.42 23.2002 34.92 23.2002 35.82C23.2002 37.82 23.2002 39.72 23.2002 41.62Z" fill="#85D9FC"/>
</svg>
