<?xml version="1.0" encoding="utf-8"?>
<!-- Generator: Adobe Illustrator 22.1.0, SVG Export Plug-In . SVG Version: 6.00 Build 0)  -->
<svg version="1.1" id="Слой_1" xmlns="http://www.w3.org/2000/svg" xmlns:xlink="http://www.w3.org/1999/xlink" x="0px" y="0px"
	 viewBox="0 0 597.7 509.6" style="enable-background:new 0 0 597.7 509.6;" xml:space="preserve">
<style type="text/css">
	.st0{fill:#D6C8FF;}
	.st1{fill:#4147A2;}
</style>
<circle class="st0" cx="294.4" cy="257.1" r="169.4"/>
<g>
	<path class="st1" d="M240.8,141.4c6-2.2,11.3-4.2,16.7-6.2c13.9-5.1,27.8-10.1,41.6-15.3c3-1.1,5.6-1.4,8.4,0.1
		c0.6,0.3,1.3,0.4,2,0.6c11.5,4.3,22.9,8.6,34.4,12.8c6.9,2.6,13.8,5.1,20.7,7.6c-0.2,0.3-0.2,0.5-0.3,0.6c-1.8,0.9-5,1-5.4,2.6
		c-0.8,3.1-0.2,6.6-0.3,9.9c0,0.9,0.8,0.8,1.3,1c3.2,1.8,3.8,4.7,1.2,7.2c-0.8,0.8-0.8,1.3-0.6,2.2c0.9,3.9,1.8,7.8,2.7,11.7
		c0.3,1.2,0.3,1.8-1.3,1.9c-5.8,0.2-5.8,0.3-4.9-5.5c0.4-2.7,0.8-5.3,1.3-8c0.2-1.2,0-1.8-1-2.5c-2.5-1.9-2.7-4.8-0.5-6.9
		c0.6-0.6,0.8-1,0.8-1.7c0-2.8,0-5.6,0-8.6c-2.5,0.7-4.6,2.1-6.7,3.1c-3.3,1.6-6.5,3.4-9.8,4.8c-1.6,0.7-2.1,1.7-2,3.4
		c0.3,9.2,0.4,18.4,0.7,27.7c0.1,2.6,0,4.4-4.2,3.1c3,3.6,6,6.1,7.7,9.5c-0.5,0.3-0.8,0.2-1.2-0.3c-3.2-3.4-6.9-6.1-11.1-8.1
		c-1-0.5-1.9-0.7-3-0.7c-10.9,0-21.8,0-32.6,0c-3,0-5.4,1.6-8.1,2.8c-3.6,1.5-6.9,3.6-10.9,4.2c-5.5,0.8-10.3-0.7-15.1-4.2
		c3.8-0.6,7.3-0.6,10.3-2.2c0.2-0.5,0.1-0.6-0.2-0.6c-3.5-0.2-3.5-0.2-3.5-3.6c-0.1-8.6-0.3-17.2-0.1-25.8c0.1-3-0.8-4.6-3.6-5.5
		c-2.1-0.7-4-1.8-6-2.8C257.4,149.2,244.4,142.7,240.8,141.4z M351.3,144.1c-0.9-0.8-1.7-0.5-2.4-0.5c-14.6,0-29.2,0-43.8,0
		c-0.7,0-1.4,0-2.1-0.1c-0.7-0.1-0.7-0.6-0.7-1.1c0-0.5,0.2-0.8,0.7-0.9c0.6-0.1,1.2,0,1.8,0c14.4,0,28.7,0,43.1,0c1,0,2.1,0,3.1,0
		c-15.2-6.9-30.7-12.4-46.2-18.1c-1-0.4-1.9-0.1-2.7,0.2c-15.8,5.8-31.6,11.6-47.5,17.4c-0.5,0.2-1.5,0.1-1.5,1.1
		c16.4,7.9,32.9,15.7,49.3,23.7c1.2,0.6,2.1,0.2,3.1-0.3c12.3-5.8,24.5-11.5,36.8-17.3C345.2,146.9,348.2,145.6,351.3,144.1z
		 M303.7,183.5C303.7,183.5,303.7,183.5,303.7,183.5c9.9,0,19.8,0,29.7,0c1.6,0,2.3-0.3,2.3-2.1c0-7.7,0-15.5,0.2-23.2
		c0-2.2-0.6-2.2-2.3-1.3c-9.3,4.5-18.7,8.9-27.9,13.4c-1.5,0.7-2.7,0.6-4.1-0.1c-9.2-4.4-18.4-8.7-27.5-13.1
		c-1.5-0.7-2.1-0.8-2.1,1.2c0.1,7.7,0.2,15.3,0.1,23c0,1.9,0.6,2.3,2.4,2.3C284.2,183.5,294,183.5,303.7,183.5z"/>
	<path class="st1" d="M258.3,197.2c-5.1,6.4-9.4,12.6-13.1,19.2c-8,14.4-12.9,29.6-12,46.3c0.7,13.3,5.3,25.3,12.3,36.4
		c8.4,13.1,19.5,23.8,30.9,34.1c9.5,8.6,19.8,16.5,28.8,25.7c9.1,9.3,15.3,19.9,16.1,33.3c0.1,1,0,2-0.2,3.1
		c-2.9-14.8-11.8-25.4-23.4-34.2c-3.3-2.5-6.7-5-10-7.5c-12-8.7-23.7-17.7-34.2-28.2c-11-11-20-23.4-25.1-38.3
		c-7.5-22-4.7-43,6.5-63.1c5.4-9.6,12.3-17.9,20.5-25.2c0.5-0.5,1.1-0.9,1.6-1.3C257.2,197.4,257.4,197.4,258.3,197.2z"/>
	<path class="st1" d="M330.3,264.4c-0.7-0.3-1.4-0.2-2.1,0.1c-4.9-0.2-9.8-0.2-14.6-0.8c-6.1-1.1-12.1-2.6-17.4-6
		c-10.1-6.4-14.2-16-14.3-27.6c0-0.8,1.4-2.6-1.1-2.3c0-0.5-0.1-1,0-1.5c2.1-14.7,8.9-26,22.9-32.1c0.4-0.2,0.8-0.3,1.2-0.5
		c-0.3-1-1.4-0.7-1.9-1.4c0.1-0.1,0.2-0.2,0.3-0.2c6.7-1.1,13.4-1.1,19.8,1.2c11.1,3.9,17.3,12.3,20.9,23.1c0.2,0.5-0.5,2.7,1.6,1.4
		c0.2,0.4,0.4,0.7,0.5,1.1c1,7.6,0,15-2.8,22.2c-0.5-3.3-0.5-6.6-1-9.8c-1.1-6.5-2.8-12.8-7.3-17.9c-9.8-11.2-28.6-8.5-35.8,5
		c-5.1,9.6-5.2,24.8,6.6,34.2c4.9,3.9,10.2,6.8,16.2,8.6c1.7,0.9,3.5,1.4,5.3,1.7c1.2,0.5,2.5,0.8,3.8,0.8
		C331,263.9,330.7,264.2,330.3,264.4z"/>
	<path class="st1" d="M321.4,370.1c-2-1.9-2.4-4.4-2.6-6.8c-0.9-8.6,1.5-16.7,4.5-24.6c3-7.8,7.2-15,11.2-22.3c4-7.4,7.2-15,8-23.5
		c0.6-6.8-0.9-13.1-5.1-18.6c-0.5-0.7-1-1.4-1.9-1.8c0.2-0.2,0.3-0.4,0.5-0.7c8,4.8,11.1,12.4,11.4,21.3c0.4,10.4-3.1,19.8-8,28.7
		c-5.1,9.3-10.6,18.5-14.6,28.5c-1.7,4.1-3,8.3-3.6,12.7C320.8,365.4,321.5,367.7,321.4,370.1L321.4,370.1z"/>
	<path class="st1" d="M296.5,326.4c-42.9-23.4-48.5-61.2-39.9-89.9C252.3,274.3,267,303.6,296.5,326.4z"/>
	<path class="st1" d="M327,239.4c-0.5,0.2-0.9,0.5-1.4,0.7c-1,0.2-2,0.5-3,0.6c-3.9,0.2-7.4-2.3-8.5-6.1c-1.2-3.8,0.1-7.7,3.2-9.7
		c0.9,0.6-0.1,1.2-0.1,1.8c0.1,1.4,0.6,2.4,2.1,2.4c1.4,0,2.1-1.1,2-2.3c-0.1-1.2-0.9-2-2.3-2c-0.6,0-1.2,1-1.8,0.1
		c0.3-1.1,1.3-1.2,2.2-1.6c2.1-1,6.4,0.2,6.4,0.3c1.1,0.9,1.7,0.9,2.2,1.3c0.8,1,1.5,2.1,2.3,3.1c0.6,2.6,0.6,5.1-0.1,7.7
		C329.2,236.9,328.1,238.2,327,239.4z"/>
	<path class="st1" d="M326.7,241.7c-4.5,4.7-11.4,4.8-15.9,0.2c-5.8-6-5.1-16.4,1.5-21.5c4.7-3.6,10.6-3.2,14.8,1.2
		c-0.2,0.2-0.4,0.3-0.6,0.5c-0.1,0-0.2,0-0.4,0c-0.2-0.1-0.3-0.2-0.5-0.3c-4-2.3-8.2-1.7-11.3,1.7c-3.7,4-4.4,10.4-1.6,15.1
		c2.9,4.9,8.2,6.3,12.9,3.2c0.3-0.1,0.5-0.2,0.8-0.3C326.5,241.4,326.6,241.5,326.7,241.7z"/>
	<path class="st1" d="M345.7,260.3c-1.5,2.1-3.2,4-5.5,5.3c0.7-2,1.4-3.9,0.9-6.2c-0.6-0.1-0.7,2-1.8,0.2c-1.4-2.3-4-3.2-6.9-4.2
		c4.5-2.6,8.9-5,9.4-10.8C347.2,248.8,348.6,254.5,345.7,260.3z M340,258.3c0.2,0.2,0.4,0.3,0.6,0.5c0-0.1,0.2-0.3,0.1-0.4
		c-0.1-0.2-0.3-0.3-0.5-0.4C340.2,258,340.1,258.1,340,258.3z"/>
	<path class="st1" d="M327.1,221.5c0.2,0.2,0.3,0.3,0.5,0.5c-0.2,0.1-0.3,0.2-0.5,0.3c-0.2-0.1-0.4-0.3-0.6-0.4
		C326.7,221.8,326.9,221.6,327.1,221.5z"/>
	<path class="st1" d="M327.6,222c0.2,0.2,0.3,0.3,0.5,0.5c-0.2,0.1-0.3,0.3-0.5,0.4c-0.2-0.2-0.3-0.4-0.5-0.5
		C327.3,222.2,327.4,222.1,327.6,222z"/>
	<path class="st1" d="M328.4,222.8c-0.1,0.4-0.8,0.3-0.8,0.1c0.2-0.1,0.3-0.3,0.5-0.4C328.2,222.6,328.3,222.7,328.4,222.8z"/>
	<path class="st1" d="M321.4,370.1c0.1,0,0.2,0,0.3,0c0,0.1,0,0.2-0.1,0.3C321.6,370.3,321.5,370.2,321.4,370.1
		C321.4,370.1,321.4,370.1,321.4,370.1z"/>
	<path class="st1" d="M326.4,241.2c0.2,0,0.6-0.1,0.6,0c0.2,0.3-0.1,0.3-0.3,0.4C326.6,241.5,326.5,241.4,326.4,241.2z"/>
	<path class="st1" d="M340,258.3c0.1-0.1,0.1-0.3,0.2-0.4c0.2,0.1,0.4,0.2,0.5,0.4c0.1,0.1-0.1,0.3-0.1,0.4
		C340.4,258.6,340.2,258.5,340,258.3z"/>
</g>
</svg>
