<svg width="178" height="166" viewBox="0 0 178 166" fill="none" xmlns="http://www.w3.org/2000/svg">
<path d="M42.6 135C40.1 139.2 37.5 143.3 35.1 147.6C34.3 149 33.7 148.9 32.5 148C17.9 136.3 7.79999 121.6 3.49999 103.4C-3.60001 73 3.79998 46.4 25.8 24.2C38.8 11 54.9 3.4 73.4 1.4C100.4 -1.6 123.7 6.70001 142.7 26.1C156 39.6 163.4 56.1 165.3 75.1C166.8 90.6 164.2 105.4 157.3 119.4C148.3 118.5 139.5 116.7 130.5 115.5C128.9 115.3 127.3 114.3 125.6 115.3C125.4 115.3 125.1 115.3 124.9 115.3C124.9 113.9 123.7 113.4 122.8 112.7C114.3 105.5 105.8 98.3 97.3 91.1C89.8 84.7 82.3 78.3 74.7 72.1C72.4 70.2 70.7 68.3 71.3 65C71.5 64.2 71.3 63.2 71.3 62.4C71.3 62.3 71.4 62.3 71.4 62.2C77.1 59 82.7 55.8 88.7 52.4C82.6 48.9 77 45.8 71.3 42.6C71.2 42.5 71 42.5 70.9 42.4C70.8 42.2 70.8 42 70.6 41.9C66 36.6 61.3 31.3 56.8 26C55.9 25 55.3 25.2 54.6 26.1C51.5 29.7 48.4 33.3 45.2 36.7C36.9 45.6 29.8 55.3 25.1 66.7C21 76.6 18.5 86.8 19.6 97.7C20.6 109 25.4 118.5 33 126.8C35.9 129.7 39.4 132.2 42.6 135Z" fill="#e2d9ff"/>
<path d="M42.6 135C39.5 132.1 35.9 129.7 33 126.6C25.4 118.4 20.7 108.9 19.6 97.5C18.6 86.6 21.1 76.4 25.1 66.5C29.8 55.2 36.9 45.4 45.2 36.5C48.4 33 51.5 29.4 54.6 25.9C55.4 25 56 24.8 56.8 25.8C61.4 31.1 66 36.4 70.6 41.7C70.7 41.8 70.8 42.1 70.9 42.2C63.1 45.5 55.2 48.8 47 52.3C55.4 55.7 63.3 59 71.2 62.2C71.2 63.1 71.3 64 71.2 64.8C70.6 68 72.3 70 74.6 71.9C82.2 78.1 89.7 84.6 97.2 90.9C105.7 98.1 114.2 105.3 122.7 112.5C123.5 113.2 124.7 113.7 124.8 115.1C124.1 115.5 123.7 116.2 123.1 116.8C118.6 121.7 113.9 126.4 108.4 130.3C106.1 127 103.9 123.7 101.6 120.4C101.5 120.2 101.5 120 101.4 119.8C94.1 108.6 87 97.4 79.5 86.4C74.3 78.8 66.8 75.4 57.6 76.5C47.4 77.6 39.2 85.4 37.5 95.2C35.7 105.5 40.6 115.8 49.8 120.1C57.5 123.7 65.5 126.8 73.3 130C74.3 130.4 75.2 130.9 76.2 131.3C82.1 133.9 88.1 136.4 94 139C91.1 140.9 87.9 141.7 84.6 142.7C77.8 144.7 70.9 144.8 64 144C62.4 143.7 60.9 143.4 59.3 143.1C54.8 141.5 50.5 139.7 46.3 137.4C45.3 136.6 44.1 135.5 42.6 135Z" fill="#F16856"/>
<path d="M108.6 130.4C114 126.5 118.8 121.8 123.3 116.9C123.8 116.3 124.3 115.6 125 115.2C125.2 115.2 125.5 115.2 125.7 115.2C129.8 118.5 133.9 121.7 137.9 125.1C141.3 128 145.1 130.5 148.2 133.8C135.5 149.9 119.1 160 98.9001 164C84.5001 166.9 70.4 165.7 56.5 161.1C54.9 160.6 54.5 160.1 55.5 158.5C58.5 153.8 61.3 148.9 64.2 144.1C71.2 144.9 78.1 144.8 84.8 142.8C88 141.9 91.3 141 94.2 139.1C94.8 139.3 95.4001 139.4 95.9001 139.7C103.7 143 111.6 146.3 119.4 149.6C119.9 149.8 120.4 150.3 121.2 150C120.8 149.4 120.5 148.9 120.1 148.3C116.3 142.3 112.5 136.3 108.6 130.4Z" fill="#e2d9ff"/>
<path d="M148.2 133.7C145.1 130.4 141.3 127.9 137.9 125C133.9 121.6 129.8 118.4 125.7 115.1C127.4 114.1 129 115.1 130.6 115.3C139.5 116.5 148.4 118.3 157.4 119.2C160.4 120.2 163.6 120.1 166.7 121C166.7 130 166.7 139 166.6 148C161.4 143.8 156.2 139.6 151 135.5C150 134.9 149.3 134.1 148.2 133.7Z" fill="#F16856"/>
<path d="M166.5 148.1C166.5 139.1 166.5 130.1 166.6 121.1C169.7 121.5 172.9 122.1 176 122.4C177.4 122.6 177 123.4 177 124.2C177 130.3 177 136.4 177 142.5C177 147.1 177 151.8 177 156.9C173.3 153.8 169.9 150.9 166.5 148.1Z" fill="#231E1F"/>
<path d="M46.6 137.5C50.8 139.8 55.1 141.6 59.6 143.2C56.8 147.9 53.9 152.6 51.2 157.3C50.6 158.3 50.1 158.6 48.9 158C45.5 156.3 42.2 154.6 39 152.6C38.1 152 38 151.6 38.6 150.7C41.2 146.3 43.9 141.9 46.6 137.5Z" fill="#e2d9ff"/>
<path d="M71.3 62.3C63.4 59.1 55.5 55.8 47.1 52.4C55.4 48.9 63.2 45.6 71 42.3C71.1 42.4 71.3 42.4 71.4 42.5C71.4 49 71.4 55.6 71.4 62.1C71.4 62.1 71.3 62.2 71.3 62.3ZM63 54.7C64.6 54.6 65.5 53.8 65.5 52.3C65.5 50.9 64.6 49.8 63.1 49.8C61.6 49.8 60.7 50.6 60.7 52.2C60.7 53.7 61.6 54.5 63 54.7Z" fill="#231E1F"/>
<path d="M71.5 62.1C71.5 55.6 71.5 49 71.5 42.5C77.1 45.7 82.8 48.9 88.9 52.3C82.8 55.7 77.1 58.9 71.5 62.1Z" fill="#F6F5E7"/>
<path d="M73.5 130.1C65.6 126.8 57.7 123.8 50 120.2C40.7 115.9 35.9 105.6 37.7 95.3C39.4 85.5 47.6 77.7 57.8 76.6C67 75.6 74.5 78.9 79.7 86.5C87.2 97.5 94.3999 108.8 101.6 119.9C101.7 120.1 101.8 120.3 101.8 120.5C101.4 120.6 101 120.8 100.7 120.9C91.6 123.9 82.6 127 73.5 130.1Z" fill="#231E1F"/>
<path d="M73.5 130.1C82.6 127 91.6 123.9 100.7 120.9C101.1 120.8 101.5 120.6 101.8 120.5C104.1 123.8 106.3 127.1 108.6 130.4C112.4 136.4 116.3 142.3 120.1 148.3C120.5 148.9 120.8 149.4 121.2 150C120.4 150.4 119.9 149.8 119.4 149.6C111.6 146.3 103.7 143 95.9 139.7C95.3 139.5 94.8 139.3 94.2 139.1C88.3 136.5 82.3 134 76.4 131.4C75.4 131 74.5 130.6 73.5 130.1Z" fill="#F6F5E7"/>
<path d="M63 54.7C61.6 54.5 60.7 53.8 60.7 52.2C60.7 50.7 61.7 49.8 63.1 49.8C64.6 49.8 65.5 50.8 65.5 52.3C65.5 53.7 64.6 54.6 63 54.7Z" fill="#F6F5E7"/>
</svg>
