<svg width="36" height="36" viewBox="0 0 36 36" fill="none" xmlns="http://www.w3.org/2000/svg">
<path d="M25.9 24.8C26 25 25.9001 25 25.8001 25C23.2001 25 20.6 25 18.1 25H10.5C10.2 25 10.2001 25 10.3001 24.7C11.0001 23 11.5 21.2 12 19.4C12.6 17.5 13 15.6 13.5 13.6C13.7 13 13.8 12.4 14.1 11.9C14.6 10.7 15.5001 9.99999 16.8001 9.69999C17.7001 9.49999 18.6 9.49999 19.5 9.69999C20.7 9.89999 21.6 10.7 22.1 11.8C22.5 12.7 22.7 13.6 23 14.6C23.7 17.4 24.4 20.2 25.4 23C25.4 23.7 25.6 24.3 25.9 24.8Z" fill="#11198B"/>
<path d="M18.0001 0.599976C8.40012 0.599976 0.600098 8.39998 0.600098 18C0.600098 27.6 8.40012 35.4 18.0001 35.4C27.6001 35.4 35.4001 27.6 35.4001 18C35.4001 8.39998 27.6001 0.599976 18.0001 0.599976ZM19.8002 27.3C19.6002 28.1 18.9001 28.7 18.0001 28.7C17.1001 28.7 16.4001 28.1 16.2001 27.3C16.2001 27.1 16.2001 27 16.4001 27C16.9001 27 17.4001 27 18.0001 27C18.5001 27 19.0001 27 19.6001 27C19.8001 27 19.8002 27 19.8002 27.3ZM28.4001 26C28.3001 26.4 28.0001 26.7 27.6001 26.7C26.2001 26.7 24.8002 26.7 23.3002 26.7C18.4002 26.7 13.6001 26.7 8.70007 26.7C8.60007 26.7 8.40017 26.7 8.30017 26.7C7.90017 26.7 7.60012 26.4 7.50012 26C7.40012 25.6 7.60012 25.2 8.00012 25.1C8.10012 25.1 8.20007 25 8.20007 24.9C8.60007 24 9.00017 23.1 9.30017 22.2C10.2002 19.5 10.9001 16.8 11.5001 14.1C11.8001 13 12.1001 12 12.6001 11C13.4001 9.39998 14.7001 8.59998 16.4001 8.29998C16.5001 8.29998 16.6002 8.29997 16.8002 8.19997C16.5002 7.89997 16.4001 7.59997 16.4001 7.19997C16.4001 6.59997 16.8001 5.99998 17.4001 5.79998C18.0001 5.59998 18.7001 5.79998 19.1001 6.29998C19.5001 6.79998 19.5001 7.49998 19.2001 7.99998C19.2001 7.99998 19.2001 7.99998 19.2001 8.09998C19.1001 8.19998 19.1002 8.29998 19.3002 8.29998C19.9002 8.39998 20.4001 8.49998 21.0001 8.79998C22.2001 9.29998 23.0001 10.3 23.6001 11.5C24.0001 12.4 24.3001 13.4 24.5001 14.5C25.1001 17.2 25.8001 19.8 26.7001 22.5C27.0001 23.4 27.3001 24.2 27.7001 25.1C27.8001 25.2 27.8001 25.3 28.0001 25.4C28.3001 25.2 28.5001 25.6 28.4001 26Z" fill="#11198B"/>
</svg>
