<svg width="35" height="34" viewBox="0 0 35 34" fill="none" xmlns="http://www.w3.org/2000/svg">
<path d="M14 30C14 32.209 13.209 34 11 34H4C0 34 0 20 4 20H11C13.209 20 14 21.791 14 24V30Z" fill="#553788"/>
<path d="M33 32H32V22H33C33.553 22 34 21.553 34 21C34 20.447 33.553 20 33 20H9C5 20 5 34 9 34H33C33.553 34 34 33.553 34 33C34 32.447 33.553 32 33 32Z" fill="#9266CC"/>
<path d="M33.172 32H10C8 32 8 22 10 22H33.172C34.276 22 34.276 32 33.172 32Z" fill="#CCD6DD"/>
<path d="M10.5 24H33.85C33.715 22.825 33.49 22 33.172 22H9.99997C8.34897 22 8.06197 28.808 9.13697 31.188C8.74497 28.229 9.19897 24 10.5 24Z" fill="#99AAB5"/>
<path d="M11 7C11 9.209 9.209 11 7 11H3C-1 11 -1 0 3 0H7C9.209 0 11 1.791 11 4V7Z" fill="#226699"/>
<path d="M30 9H29V2H30C30.553 2 31 1.553 31 1C31 0.447 30.553 0 30 0H6C2 0 2 11 6 11H30C30.553 11 31 10.553 31 10C31 9.447 30.553 9 30 9Z" fill="#55ACEE"/>
<path d="M30.172 9H7C5 9 5 2 7 2H30.172C31.276 2 31.276 9 30.172 9Z" fill="#CCD6DD"/>
<path d="M6.99993 4H30.9249C30.8109 2.875 30.5609 2 30.1719 2H6.99993C5.80693 2 5.33093 4.489 5.56193 6.5C5.71793 5.142 6.19293 4 6.99993 4Z" fill="#99AAB5"/>
<path d="M19 16C19 18.209 17.209 20 15 20H5C1 20 1 11 5 11H15C17.209 11 19 12.791 19 15V16Z" fill="#F4900C"/>
<path d="M34 18H33V13H34C34.553 13 35 12.553 35 12C35 11.447 34.553 11 34 11H14C10 11 10 20 14 20H34C34.553 20 35 19.553 35 19C35 18.447 34.553 18 34 18Z" fill="#FFAC33"/>
<path d="M34.172 18H15C13 18 13 13 15 13H34.172C35.276 13 35.276 18 34.172 18Z" fill="#CCD6DD"/>
<path d="M14.9999 15H34.9839C34.9189 13.938 34.6499 13 34.1719 13H14.9999C13.7259 13 13.2669 15.027 13.6169 16.5C13.8149 15.661 14.2739 15 14.9999 15Z" fill="#99AAB5"/>
</svg>
