<svg width="36" height="27" viewBox="0 0 36 27" fill="none" xmlns="http://www.w3.org/2000/svg">
<path d="M32 3H4C1.791 3 0 4.791 0 7V22C0 24.209 1.791 26 4 26H15.416C15.936 26.596 16.893 27 18 27C19.107 27 20.065 26.596 20.584 26H32C34.209 26 36 24.209 36 22V7C36 4.791 34.209 3 32 3Z" fill="#226699"/>
<path d="M20 23C20 24.104 19.104 25 18 25C16.896 25 16 24.104 16 23V5C16 3.896 16.896 3 18 3C19.104 3 20 3.896 20 5V23Z" fill="#292F33"/>
<path d="M18 22C18 23.104 17.104 24 16 24H4C2.896 24 2 23.104 2 22V4C2 2.896 2.896 2 4 2H16C17.104 2 18 2.896 18 4V22Z" fill="#99AAB5"/>
<path d="M18 22C17.001 20.002 14.343 20 14 20C12 20 9 22 6 22C5 22 4 21.104 4 20V4C4 2.896 5 2 6 2C9.255 2 12 0 14 0C17 0 18 1.896 18 3V22Z" fill="#E1E8ED"/>
<path d="M34 22C34 23.104 33.104 24 32 24H20C18.896 24 18 23.104 18 22V4C18 2.896 18.896 2 20 2H32C33.104 2 34 2.896 34 4V22Z" fill="#99AAB5"/>
<path d="M18 22C18.999 20.002 21.657 20 22 20C24 20 27 22 30 22C31 22 32 21.104 32 20V4C32 2.896 31 2 30 2C26.744 2 24 0 22 0C19 0 18 1.896 18 3V22Z" fill="#CCD6DD"/>
</svg>
